<?xml version="1.0" standalone="no"?>
<!DOCTYPE svg PUBLIC "-//W3C//DTD SVG 1.1//EN" "http://www.w3.org/Graphics/SVG/1.1/DTD/svg11.dtd" >
<!--
2013-9-30: Created.
-->
<svg>
<metadata>
Created by iconfont
</metadata>
<defs>

<font id="iconfont" horiz-adv-x="1024" >
  <font-face
    font-family="iconfont"
    font-weight="500"
    font-stretch="normal"
    units-per-em="1024"
    ascent="896"
    descent="-128"
  />
    <missing-glyph />
    
    <glyph glyph-name="x" unicode="x" horiz-adv-x="1001"
d="M281 543q-27 -1 -53 -1h-83q-18 0 -36.5 -6t-32.5 -18.5t-23 -32t-9 -45.5v-76h912v41q0 16 -0.5 30t-0.5 18q0 13 -5 29t-17 29.5t-31.5 22.5t-49.5 9h-133v-97h-438v97zM955 310v-52q0 -23 0.5 -52t0.5 -58t-10.5 -47.5t-26 -30t-33 -16t-31.5 -4.5q-14 -1 -29.5 -0.5
t-29.5 0.5h-32l-45 128h-439l-44 -128h-29h-34q-20 0 -45 1q-25 0 -41 9.5t-25.5 23t-13.5 29.5t-4 30v167h911zM163 247q-12 0 -21 -8.5t-9 -21.5t9 -21.5t21 -8.5q13 0 22 8.5t9 21.5t-9 21.5t-22 8.5zM316 123q-8 -26 -14 -48q-5 -19 -10.5 -37t-7.5 -25t-3 -15t1 -14.5
t9.5 -10.5t21.5 -4h37h67h81h80h64h36q23 0 34 12t2 38q-5 13 -9.5 30.5t-9.5 34.5q-5 19 -11 39h-368zM336 498v228q0 11 2.5 23t10 21.5t20.5 15.5t34 6h188q31 0 51.5 -14.5t20.5 -52.5v-227h-327z" />
    

    
    <glyph glyph-name="xunzhang" unicode="&#59037;" d="M648.3968 406.3936c20.821333 49.442133 86.3232 207.684267 86.3232 241.237333L734.72 779.573333 512.238933 779.573333 290.986667 779.573333l0-131.925333c0-33.6384 65.0752-192.853333 85.367467-241.698133C275.285333 355.637333 205.653333 251.598933 205.653333 131.04c0-169.659733 137.540267-307.2 307.2-307.2s307.2 137.540267 307.2 307.2C820.053333 251.991467 749.9776 356.302933 648.3968 406.3936zM325.12 647.648 325.12 745.44l170.052267 0 0-233.5232 34.133333 0L529.3056 745.44 700.586667 745.44l0-97.792c0-18.705067-41.8816-128.853333-83.6096-227.8912-32.546133 11.741867-67.515733 18.4832-104.123733 18.4832-36.983467 0-72.277333-6.877867-105.1136-18.8416C372.2752 504.7488 325.12 627.0656 325.12 647.648zM512.853333-142.026667c-150.562133 0-273.066667 122.504533-273.066667 273.066667s122.504533 273.066667 273.066667 273.066667 273.066667-122.504533 273.066667-273.066667S663.415467-142.026667 512.853333-142.026667zM512.853333 335.84c-113.1008 0-204.8-91.6992-204.8-204.8s91.6992-204.8 204.8-204.8c113.117867 0 204.8 91.6992 204.8 204.8S625.9712 335.84 512.853333 335.84zM512.853333-39.626667c-94.1056 0-170.666667 76.561067-170.666667 170.666667s76.561067 170.666667 170.666667 170.666667c94.122667 0 170.666667-76.561067 170.666667-170.666667S606.958933-39.626667 512.853333-39.626667z"  horiz-adv-x="1024" />

    
    <glyph glyph-name="tupian" unicode="&#59118;" d="M329.142857 457.142857c40.393143 0 73.142857 32.749714 73.142857 73.142857 0 40.411429-32.749714 73.142857-73.142857 73.142857-40.356571 0-73.142857-32.731429-73.142857-73.142857C256 489.892571 288.786286 457.142857 329.142857 457.142857zM658.285714 502.857143 441.536 197.215086 329.142857 353.250743 146.285714 91.428571 877.714286 91.428571ZM950.857143 804.571429 73.142857 804.571429c-20.214857 0-36.571429-16.374857-36.571429-36.571429l0-768c0-20.214857 16.356571-36.571429 36.571429-36.571429l877.714286 0c20.214857 0 36.571429 16.356571 36.571429 36.571429L987.428571 768C987.428571 788.196571 971.072 804.571429 950.857143 804.571429zM914.285714 36.571429 109.714286 36.571429 109.714286 731.428571l804.571429 0L914.285714 36.571429z"  horiz-adv-x="1024" />

    
    <glyph glyph-name="jifen" unicode="&#58970;" d="M603.584 426.4c-24.874667 21.952-45.482667 34.282667-83.712 34.282667-42.474667 0-70.357333-24.618667-70.357333-59.989333 0-91.050667 190.485333-64.277333 190.485333-194.432 0-56.746667-40.64-95.317333-104.341333-102.826667l0-59.434667-36.992 0 0 58.922667c-43.669333 3.776-86.741333 23.018667-114.666667 46.058667l23.658667 29.994667c27.925333-21.952 62.506667-40.192 104.938667-40.192 52.181333 0 78.869333 25.173333 78.869333 64.277333 0 101.76-190.485333 77.696-190.485333 195.498667 0 52.48 40.042667 90.496 97.664 98.005333L498.645333 556l36.992 0 0-58.922667c43.072-3.776 70.976-21.930667 94.634667-44.416L603.584 426.4zM512 730.933333c237.610667 0 430.933333-193.322667 430.933333-430.933333s-193.322667-430.933333-430.933333-430.933333-430.933333 193.322667-430.933333 430.933333S274.389333 730.933333 512 730.933333M512 769.333333c-259.2 0-469.333333-210.133333-469.333333-469.333333s210.133333-469.333333 469.333333-469.333333 469.333333 210.133333 469.333333 469.333333S771.2 769.333333 512 769.333333L512 769.333333zM857.301333 468.256M779.989333 575.050667M857.28 468.256c-4.885333 10.069333-17.024 14.208-27.029333 9.322667-10.048-4.885333-14.208-17.002667-9.322667-27.029333 22.997333-47.104 34.645333-97.749333 34.645333-150.549333 0-189.461333-154.133333-343.573333-343.573333-343.573333-11.157333 0-20.202667-9.045333-20.202667-20.202667s9.045333-20.202667 20.202667-20.202667c211.733333 0 384 172.266667 384 384C896 359.008 882.965333 415.605333 857.28 468.256zM512 643.573333c90.090667 0 175.253333-34.624 239.786667-97.472 3.925333-3.84 9.024-5.76 14.101333-5.76 5.269333 0 10.517333 2.048 14.485333 6.101333 7.786667 7.978667 7.616 20.8-0.384 28.586667-72.128 70.250667-167.296 108.949333-267.989333 108.949333-11.157333 0-20.202667-9.045333-20.202667-20.202667S500.842667 643.573333 512 643.573333zM378.389333-16.650667c-127.552 53.888-209.984 178.176-209.984 316.650667 0 133.845333 78.634667 256.469333 200.298667 312.362667 10.154667 4.693333 14.592 16.682667 9.92 26.816-4.650667 10.176-16.682667 14.592-26.794667 9.941333-135.978667-62.464-223.829333-199.509333-223.829333-349.098667 0-154.752 92.117333-293.653333 234.666667-353.856 2.581333-1.088 5.248-1.6 7.872-1.6 7.872 0 15.36 4.650667 18.624 12.352C393.493333-32.821333 388.672-20.981333 378.389333-16.650667z"  horiz-adv-x="1024" />

    
    <glyph glyph-name="iconfontdaohanggonggao" unicode="&#59046;" d="M563.872 782.24c-14.016 6.592-30.56 4.416-42.464-5.472L291.872 585.728 108.928 586.464 108.768 586.464c-10.528 0-20.672-4.16-28.128-11.616-7.52-7.456-11.776-17.6-11.776-28.224l-0.832-319.264c0-10.624 4.16-20.8 11.648-28.288 7.456-7.552 17.632-11.744 28.256-11.744l185.12 0 228.384-190.336c7.296-6.08 16.416-9.216 25.536-9.216 5.76 0 11.52 1.248 16.928 3.776 14.016 6.56 22.976 20.64 22.976 36.128L586.88 746.112C586.88 761.568 577.92 775.648 563.872 782.24L563.872 782.24zM718.624 582.688c-19.68 9.312-43.072 0.832-52.64-18.752-9.536-19.648-1.28-43.424 18.24-53.248 2.528-1.312 62.304-32.384 62.304-120.864 0-94.528-55.904-125.856-57.76-126.88-19.712-9.856-27.712-33.856-17.856-53.568 7.04-14.016 21.088-22.08 35.776-22.08 5.984 0 12.096 1.344 17.792 4.192 4.16 2.112 101.856 52.672 101.856 198.336C826.336 530.368 723.008 580.608 718.624 582.688L718.624 582.688zM842.88 699.904c-18.4 11.808-42.816 6.432-54.848-11.936-11.968-18.368-6.72-43.072 11.584-55.168 4.32-2.848 106.56-72.512 106.56-245.92 0-173.792-98.08-243.52-101.984-246.176-18.368-12.256-23.296-36.992-11.072-55.36 7.68-11.52 20.352-17.76 33.248-17.76 7.584 0 15.296 2.208 22.112 6.72 5.6 3.712 137.504 94.144 137.504 312.608C985.984 605.792 848.736 696.16 842.88 699.904L842.88 699.904zM842.88 699.904"  horiz-adv-x="1024" />

    
    <glyph glyph-name="1" unicode="&#59031;" d="M512 99.328 210.944 99.328c0 59.392 10.24 100.352 59.392 118.784s112.64 40.96 149.504 71.68c40.96 34.816 30.72 34.816 20.48 47.104-14.336 16.384-16.384 57.344-16.384 57.344-43.008 12.288-32.768 81.92-22.528 81.92s10.24 4.096 4.096 40.96c-8.192 47.104-4.096 71.68 18.432 100.352S512 650.24 512 650.24l0 0c0 0 65.536-4.096 88.064-32.768s26.624-53.248 18.432-100.352c-6.144-36.864-6.144-40.96 4.096-40.96s18.432-69.632-22.528-81.92c0 0-2.048-40.96-16.384-57.344-10.24-12.288-20.48-12.288 20.48-47.104 36.864-30.72 100.352-55.296 149.504-71.68s59.392-59.392 59.392-118.784L512 99.328 512 99.328zM835.584 130.048l98.304 0c0 43.008-8.192 75.776-45.056 88.064s-83.968 30.72-110.592 53.248c-30.72 26.624-22.528 26.624-14.336 34.816 10.24 12.288 12.288 43.008 12.288 43.008 30.72 8.192 24.576 59.392 16.384 59.392s-8.192 2.048-2.048 30.72c6.144 34.816 4.096 53.248-14.336 73.728-16.384 22.528-65.536 24.576-65.536 24.576l0 0c0 0-49.152-2.048-65.536-24.576-4.096-4.096-6.144-10.24-10.24-14.336 0 0 18.432-10.24 20.48-30.72 2.048-18.432 2.048-36.864-8.192-63.488s-14.336-40.96 8.192-61.44c12.288-10.24 4.096-55.296 4.096-55.296s57.344-30.72 118.784-51.2C841.728 216.064 835.584 130.048 835.584 130.048zM188.416 130.048 90.112 130.048c0 43.008 8.192 75.776 45.056 88.064s83.968 30.72 110.592 53.248c30.72 26.624 22.528 26.624 14.336 34.816-10.24 12.288-12.288 43.008-12.288 43.008-30.72 8.192-24.576 59.392-16.384 59.392s8.192 2.048 2.048 30.72c-6.144 34.816-4.096 53.248 14.336 73.728 16.384 22.528 65.536 24.576 65.536 24.576l0 0c0 0 49.152-2.048 65.536-24.576 4.096-4.096 6.144-10.24 10.24-14.336 0 0-18.432-10.24-20.48-30.72-2.048-18.432-2.048-36.864 8.192-63.488s14.336-40.96-8.192-61.44c-12.288-10.24-4.096-55.296-4.096-55.296s-57.344-30.72-118.784-51.2C182.272 216.064 188.416 130.048 188.416 130.048z"  horiz-adv-x="1024" />

    
    <glyph glyph-name="xiaolian" unicode="&#59033;" d="M511.999488 2.975007c-210.101135 0-381.034203 170.923858-381.034203 381.013737 0 210.102159 170.934091 381.026016 381.034203 381.026016 210.099089 0 381.024993-170.923858 381.024993-381.026016C893.024481 173.899888 722.0996 2.975007 511.999488 2.975007zM511.999488 703.576479C335.776951 703.576479 192.402543 560.212304 192.402543 383.98772c0-176.212304 143.374408-319.575456 319.596945-319.575456 176.22356 0 319.586712 143.363152 319.586712 319.575456C831.585177 560.212304 688.223049 703.576479 511.999488 703.576479zM437.331905 453.558216c0-38.417985-23.867594-69.559239-53.337789-69.559239-29.458939 0-53.327556 31.141254-53.327556 69.559239 0 38.419008 23.868617 69.557192 53.327556 69.557192C413.463288 523.114384 437.331905 491.9762 437.331905 453.558216zM693.32116 453.558216c0-38.417985-23.868617-69.559239-53.336766-69.559239-29.458939 0-53.326533 31.141254-53.326533 69.559239 0 38.419008 23.867594 69.557192 53.326533 69.557192C669.452543 523.114384 693.32116 491.9762 693.32116 453.558216zM511.999488 145.330202c-91.545996 0-173.822884 54.549384-209.610972 138.962935l56.558134 23.980157c26.148543-61.657268 86.225827-101.504812 153.052838-101.504812 66.827011 0 126.895085 39.847543 153.043628 101.504812l56.558134-23.980157C685.812139 199.878562 603.537298 145.330202 511.999488 145.330202z"  horiz-adv-x="1024" />

    
    <glyph glyph-name="weixinzhifu" unicode="&#59009;" d="M413.666 296.466c-3.26-1.701-6.944-2.693-10.828-2.693-9.014 0-16.865 5.159-20.977 12.784l-1.587 3.572-65.65 149.499c-0.708 1.616-1.162 3.458-1.162 5.244 0 6.889 5.386 12.473 12.019 12.473 2.693 0 5.187-0.907 7.2-2.466l77.499-57.231c5.641-3.855 12.416-6.095 19.701-6.095 4.337 0 8.476 0.822 12.33 2.268l364.452 168.293C741.322 661.993 633.748 714.18 512 714.18c-199.247 0-360.736-139.635-360.736-311.868 0-93.969 48.585-178.555 124.639-235.701 6.095-4.535 10.091-11.962 10.091-20.324 0-2.778-0.567-5.329-1.247-7.966-6.095-23.499-15.817-61.143-16.271-62.9-0.765-2.948-1.928-6.038-1.928-9.128 0-6.888 5.386-12.472 12.019-12.472 2.608 0 4.734 1.021 6.945 2.324l78.973 47.311c5.953 3.543 12.218 5.754 19.163 5.754 3.685 0 7.228-0.596 10.602-1.645 36.821-10.998 76.592-17.121 117.75-17.121 199.219 0 360.737 139.635 360.737 311.868 0 52.186-14.91 101.311-41.102 144.511l-415.333-248.77L413.666 296.466z"  horiz-adv-x="1024" />

    
    <glyph glyph-name="8" unicode="&#59140;" d="M1006.662 508.433c0 41.177-33.23 74.407-74.407 74.407-40.816 0-74.407-33.592-74.407-74.407 0-6.863 1.084-13.364 2.89-19.505-10.114-3.251-18.421-7.946-21.672-10.114l-135.089-79.825-117.751 171.208c-5.057 8.669-14.087 19.866-26.729 29.98 14.448 14.809 23.117 35.036 23.117 57.069 0 45.15-36.842 81.992-81.992 81.992s-81.631-37.204-81.631-82.353c0-22.033 8.669-42.26 23.117-57.069-12.281-9.752-21.672-20.95-26.729-29.98l-117.751-171.208-135.089 79.825c-0.722 0.361-1.445 1.084-2.528 1.445 3.612 8.669 5.779 18.421 5.779 28.174 0 41.177-33.23 74.407-74.407 74.407s-74.046-33.23-74.046-74.046c0-33.23 22.033-61.043 52.013-70.795-0.361-5.057-0.722-10.114-0.722-15.532v-167.958c0-15.17 12.281-27.812 27.812-27.812s27.812 12.281 27.812 27.812v168.319c0 6.502 0.361 10.836 1.084 13.364 2.528-0.722 5.418-2.167 7.585-3.612 0.361-0.361 1.084-0.722 1.445-0.722l157.844-93.189c12.642-7.224 28.535-3.973 36.842 8.308l132.921 193.603c0.361 0.722 1.084 1.445 1.445 2.167 0 0.361 14.087 23.117 37.204 24.2 0 0 0.361 0 0.361 0 0.361 0 0.722 0 1.084 0 23.478-1.084 37.204-24.2 37.204-24.2 0.361-0.722 0.722-1.445 1.445-2.167l132.921-193.603c8.308-11.92 24.2-15.532 36.842-8.308l157.844 93.189c0.361 0.361 0.722 0.722 1.084 0.722 2.167 1.445 5.057 2.89 7.585 3.612 0.722-2.528 1.084-6.863 1.084-13.726v-229.723h-781.635c-15.17 0-27.812-12.281-27.812-27.812v-110.166c0-15.17 12.281-27.812 27.812-27.812h809.086c15.17 0 27.812 12.281 27.812 27.812s-12.281 27.812-27.812 27.812l-781.274-0v54.902h781.274c15.17 0 27.812 12.281 27.812 27.812v257.174c0 4.334 0 8.308-0.361 12.281 40.454-0.361 73.685 32.869 73.685 74.046zM91.745 527.577c10.475 0 19.144-8.669 19.144-19.144s-8.669-19.144-19.144-19.144-19.144 8.669-19.144 19.144 8.669 19.144 19.144 19.144zM500.983 683.615c14.809 0 26.729-11.92 26.729-26.729s-11.92-26.729-26.729-26.729-26.729 11.92-26.729 26.729 12.281 26.729 26.729 26.729zM932.255 488.928c-10.475 0-19.144 8.669-19.144 19.144s8.669 19.144 19.144 19.144c10.475 0 19.144-8.669 19.144-19.144s-8.669-19.144-19.144-19.144z"  horiz-adv-x="1024" />

    
    <glyph glyph-name="huiyuan" unicode="&#58971;" d="M573.446144 461.625344c-26.929152-11.085824-51.612672-25.868288-74.054656-44.346368-22.441984-18.480128-41.842688-39.601152-58.211328-63.361024-16.365568-23.7568-29.039616-49.763328-38.014976-78.012416-8.976384-28.24704-13.464576-57.94816-13.464576-89.09824 0-27.456512 3.565568-53.721088 10.692608-78.799872 7.124992-25.080832 17.027072-48.712704 29.70112-70.885376L408.70912 37.122048c-15.309824 0-33.127424 0.524288-53.45792 1.58208-20.325376 1.056768-41.312256 2.510848-62.96064 4.359168-21.646336 1.844224-43.165696 3.959808-64.546816 6.330368-21.387264 2.376704-40.788992 4.888576-58.211328 7.5264-17.427456 2.6368-32.210944 5.279744-44.352512 7.921664-12.145664 2.633728-19.801088 5.276672-22.965248 7.916544-5.809152 4.226048-10.162176 17.292288-13.070336 39.200768-2.900992 21.914624-1.716224 50.033664 3.56352 84.34688 2.108416 13.201408 6.470656 24.030208 13.065216 32.474112 6.603776 8.449024 14.654464 15.706112 24.160256 21.776384 9.500672 6.075392 20.064256 10.958848 31.681536 14.654464 11.613184 3.69664 23.493632 7.26016 35.64032 10.694656 12.140544 3.433472 23.888896 7.129088 35.236864 11.08992 11.355136 3.958784 21.781504 8.841216 31.287296 14.649344 11.085824 6.866944 19.668992 13.597696 25.739264 20.196352 6.070272 6.59968 10.433536 13.06624 13.069312 19.405824 2.640896 6.330368 3.95776 12.93312 3.95776 19.798016 0 6.86592-0.26112 14.517248-0.7936 22.966272-1.055744 12.143616-5.276672 21.777408-12.669952 28.905472-7.39328 7.126016-15.572992 14.393344-24.551424 21.78048-4.224 3.69664-8.04864 8.844288-11.48416 15.449088-3.4304 6.59456-6.465536 13.32736-9.106432 20.192256-2.640896 7.921664-5.276672 16.099328-7.917568 24.554496-3.697664 1.051648-7.39328 2.902016-11.08992 5.542912-3.168256 2.635776-6.59968 6.332416-10.295296 11.085824-3.697664 4.753408-6.8608 11.618304-9.501696 20.595712-2.640896 8.973312-3.70176 17.156096-3.16928 24.546304 0.528384 7.39328 2.108416 13.996032 4.749312 19.801088 2.116608 5.809152 5.542912 11.35616 10.299392 16.631808 0 20.064256 1.051648 40.127488 3.16416 60.19072 2.112512 16.899072 5.809152 35.111936 11.090944 54.647808 5.279744 19.539968 13.463552 36.963328 24.5504 52.274176 10.561536 14.78656 21.912576 26.795008 34.055168 36.03456 12.145664 9.239552 24.81664 16.498688 38.018048 21.77536 13.198336 5.285888 26.262528 8.845312 39.199744 10.696704C384.029696 830.565376 396.567552 831.488 408.70912 831.488c15.315968 0 30.492672-1.716224 45.5424-5.147648 15.04768-3.434496 29.17376-8.050688 42.372096-13.85984 13.202432-5.808128 24.943616-12.408832 35.245056-19.801088 10.2912-7.392256 18.347008-14.782464 24.15104-22.17472 13.729792-16.894976 23.759872-35.5072 30.097408-55.832576 6.336512-20.330496 10.8288-39.733248 13.461504-58.215424 2.643968-21.115904 3.961856-42.50112 3.961856-64.149504 3.69664-2.640896 6.598656-6.071296 8.712192-10.295296 2.112512-3.697664 3.82976-8.450048 5.147648-14.255104 1.321984-5.808128 1.455104-12.937216 0.39936-21.385216-1.056768-11.619328-3.3024-20.72576-6.7328-27.32544-3.434496-6.598656-7.259136-11.746304-11.488256-15.44192-4.749312-4.221952-9.764864-7.129088-15.044608-8.712192-1.056768-3.165184-2.112512-6.603776-3.165184-10.2912l-3.96288-11.09504C576.34816 469.813248 575.025152 465.854464 573.446144 461.625344L573.446144 461.625344 573.446144 461.625344zM686.696448 436.288512c34.322432 0 66.660352-6.602752 97.019904-19.800064 30.358528-13.203456 56.763392-31.154176 79.197184-53.856256 22.443008-22.704128 40.264704-49.232896 53.458944-79.592448 13.202432-30.363648 19.801088-62.698496 19.801088-97.022976 0-34.320384-6.593536-66.658304-19.801088-97.017856-13.19936-30.358528-31.015936-56.884224-53.458944-79.5904-22.433792-22.709248-48.837632-40.52992-79.197184-53.46304-30.359552-12.936192-62.698496-19.39968-97.019904-19.39968-34.84672 0-67.45088 6.468608-97.810432 19.39968-30.35648 12.937216-56.76032 30.753792-79.198208 53.46304-22.438912 22.706176-40.259584 49.23392-53.45792 79.5904-13.202432 30.359552-19.801088 62.698496-19.801088 97.017856 0 34.32448 6.59968 66.659328 19.801088 97.022976 13.198336 30.358528 31.019008 56.88832 53.45792 79.592448 22.437888 22.70208 48.841728 40.6528 79.198208 53.856256C619.244544 429.686784 651.848704 436.288512 686.696448 436.288512L686.696448 436.288512 686.696448 436.288512zM832.420864 235.121664c3.173376 10.556416 1.717248 20.192256-4.354048 28.909568-6.071296 8.711168-14.12096 14.913536-24.155136 18.610176-10.03008 3.693568-20.063232 3.958784-30.098432 0.790528-10.029056-3.16928-17.41824-11.353088-22.170624-24.5504-2.640896-8.978432-5.146624-17.292288-7.527424-24.953856-2.373632-7.652352-4.753408-15.702016-7.12704-24.15104-2.373632-8.451072-5.275648-17.554432-8.712192-27.328512-3.4304-9.764864-7.78752-20.985856-13.068288-33.656832-5.277696-13.724672-12.804096-20.196352-22.571008-19.39968-9.767936 0.791552-17.291264 6.463488-22.571008 17.026048-5.809152 10.560512-11.224064 21.909504-16.234496 34.052096-5.018624 12.145664-9.901056 24.032256-14.654464 35.639296-4.75648 11.619328-8.977408 22.182912-12.674048 31.681536-3.692544 9.506816-6.8608 17.164288-9.505792 22.976512-4.219904 8.44288-11.213824 13.19424-20.98176 14.247936-9.767936 1.055744-19.277824-0.396288-28.51328-4.352-9.239552-3.959808-16.894976-10.167296-22.967296-18.614272-6.070272-8.450048-6.996992-17.688576-2.771968-27.718656 3.69664-10.561536 7.916544-22.441984 12.668928-35.64032 4.749312-13.201408 9.773056-26.66496 15.048704-40.392704 5.280768-13.725696 10.292224-27.191296 15.048704-40.392704 4.753408-13.197312 8.973312-24.5504 12.670976-34.052096 7.919616-20.063232 19.934208-35.115008 36.033536-45.144064 16.109568-10.036224 33.000448-15.31392 50.690048-15.839232 17.68448-0.530432 34.582528 3.434496 50.688 11.8784 16.106496 8.448 27.8528 21.12 35.24096 38.014976 5.809152 13.725696 11.752448 28.112896 17.8176 43.164672 6.075392 15.040512 11.884544 29.699072 17.430528 43.9552 5.538816 14.256128 10.691584 27.98592 15.439872 41.18528C825.293824 214.268928 829.252608 225.618944 832.420864 235.121664L832.420864 235.121664 832.420864 235.121664zM832.420864 235.121664"  horiz-adv-x="1024" />

    
    <glyph glyph-name="piaojia" unicode="&#59077;" d="M934.007467 800.802133l-212.5824 0c-50.107733 0-120.046933-30.4128-155.477333-67.618133L208.810667 358.331733c-35.4304-37.205333-35.4304-98.065067 0-135.2704l265.9328-279.210667c35.4304-37.205333 93.422933-37.205333 128.853333 0l357.034667 374.8864c35.4304 37.205333 64.4096 110.626133 64.4096 163.259733L1025.041067 705.160533C1025.0752 757.794133 984.1152 800.802133 934.007467 800.802133L934.007467 800.802133 934.007467 800.802133zM812.458667 481.9968c-50.312533 0-91.067733 42.871467-91.067733 95.607467 0 52.736 40.7552 95.607467 91.067733 95.607467 50.312533 0 91.067733-42.871467 91.067733-95.607467C903.5264 524.868267 862.7712 481.9968 812.458667 481.9968L812.458667 481.9968 812.458667 481.9968zM74.769067 268.1856l324.949333-341.128533c-34.4064-19.114667-78.301867-13.482667-107.178667 16.827733l-265.966933 279.210667c-35.4304 37.205333-35.4304 98.065067 0 135.2704l357.034667 374.8864c35.4304 37.205333 105.3696 67.618133 155.477333 67.618133L74.769067 313.275733C62.958933 300.8512 62.958933 280.576 74.769067 268.1856L74.769067 268.1856 74.769067 268.1856z"  horiz-adv-x="1026" />

    
    <glyph glyph-name="zhishi" unicode="&#58898;" d="M822.145605-63.969685 270.772798-63.969685 270.772798 694.137503l241.224644 0 0-314.440505 122.026077 92.675726 119.200613-92.675726L753.224132 694.137503l137.843969 0 0-689.188538c0-38.025035-30.893857-68.916603-68.921473-68.916603l0 0L822.145605-63.969685zM634.023519 517.531226l-87.563806-68.917626L546.459713 728.596316 718.761861 728.596316l0-279.982716L634.023519 517.531226 634.023519 517.531226zM167.3911 763.055129l0-34.458813c0-19.047822 15.411623-34.46086 34.459201-34.46086l34.462272 0 0-758.107187-34.462272 0c-38.094134 0-68.919426 30.891568-68.919426 68.917626L132.930875 763.054105c0 38.092573 30.825292 68.917626 68.919426 68.917626l620.295304 0c25.441458 0 47.383065-13.933337 59.364425-34.458813L201.851325 797.512918C182.802723 797.512918 167.3911 782.100904 167.3911 763.055129L167.3911 763.055129 167.3911 763.055129z"  horiz-adv-x="1024" />

    
    <glyph glyph-name="caidantubiao-02" unicode="&#58880;" d="M1013.811-77.055c5.095 0 5.095 0 0 0zM606.249 243.9l-5.095 40.756v86.607s56.040 35.662 61.134 91.701h10.189c40.756 5.095 66.229 106.985 66.229 106.985s0 45.851-20.378 45.851h-30.567l5.095 81.512v20.378s0 173.214-203.781 178.308c-208.876 0-173.214-96.796-173.214-96.796-25.473-15.284-40.756-40.756-40.756-91.701 0-81.512 5.095-96.796 10.189-101.891l-25.473 10.189s-35.662-5.095-30.567-45.851c5.095-40.756 35.662-101.891 76.418-106.985h10.189c0-66.229 56.040-91.701 56.040-91.701v-81.512l-71.323-40.756-219.065-71.323s-76.418-25.473-76.418-127.363v-127.363h601.154c-35.662 45.851-56.040 101.891-56.040 157.93 0 61.134 20.378 117.174 56.040 163.025zM810.030 289.751c-117.174 0-208.876-91.701-208.876-208.876s91.701-208.876 208.876-208.876 208.876 91.701 208.876 208.876-96.796 208.876-208.876 208.876zM942.488 121.632l-127.363-127.363c0-5.095-5.095-10.189-10.189-10.189-5.095-5.095-10.189-10.189-20.378-15.284-10.189-10.189-15.284-5.095-25.473 0-5.095 0-10.189 5.095-15.284 10.189-25.473 30.567-50.945 45.851-81.512 76.418-25.473 25.473-10.189 35.662 0 50.945 25.473 25.473 35.662 10.189 50.945-5.095l50.945-50.945c50.945 50.945 66.229 71.323 122.269 127.363 25.473 25.473 40.756 15.284 45.851 5.095 20.378-15.284 40.756-35.662 10.189-61.134z"  horiz-adv-x="1024" />

    
    <glyph glyph-name="classify" unicode="&#58885;" d="M153.6 640h716.8v-51.2h-716.8v51.2zM153.6 179.2h614.4v-51.2h-614.4v51.2zM153.6 409.6h460.8v-51.2h-460.8v51.2z"  horiz-adv-x="1024" />

    
    <glyph glyph-name="clock" unicode="&#58886;" d="M512 0c-212.48 0-384 171.52-384 384S299.52 768 512 768s384-171.52 384-384-171.52-384-384-384z m0 716.8C327.68 716.8 179.2 568.32 179.2 384s148.48-332.8 332.8-332.8 332.8 148.48 332.8 332.8S696.32 716.8 512 716.8zM537.6 409.6v153.6h-51.2v-204.8h204.8v51.2h-153.6z"  horiz-adv-x="1024" />

    
    <glyph glyph-name="address" unicode="&#58887;" d="M512-33.28l-15.36 12.8c-12.8 10.24-343.040 261.12-343.040 455.68 0 197.12 161.28 358.4 358.4 358.4s358.4-161.28 358.4-358.4c0-194.56-330.24-445.44-343.040-455.68l-15.36-12.8zM512 742.4c-168.96 0-307.2-138.24-307.2-307.2 0-133.12 209.92-325.12 307.2-401.92 97.28 76.8 307.2 268.8 307.2 401.92 0 168.96-138.24 307.2-307.2 307.2zM512 256c-99.84 0-179.2 79.36-179.2 179.2s79.36 179.2 179.2 179.2 179.2-79.36 179.2-179.2-79.36-179.2-179.2-179.2zM512 563.2c-71.68 0-128-56.32-128-128s56.32-128 128-128 128 56.32 128 128-56.32 128-128 128z"  horiz-adv-x="1024" />

    
    <glyph glyph-name="fuzhi" unicode="&#59050;" d="M879.04256 880.64H356.9152C289.81248 880.64 234.15808 824.99072 234.15808 757.87776H816.8448c34.37056 0 62.19264-26.99776 62.19264-61.37344v-613.7856c67.10784 0 122.76224 55.64928 122.76224 122.75712V757.87776C1001.79968 824.99072 946.1504 880.64 879.04256 880.64z m-178.41152-497.57696H149.0432V444.44672h552.41728v-61.37856h-0.82944v-0.00512z m0-184.13056H149.0432v61.37856h552.41728v-61.37856h-0.82944zM81.12128 695.68512c-33.55648 0-61.37856-27.82208-61.37856-61.37856V-40.8576c0-33.55136 27.82208-61.36832 61.37856-61.36832h675.16416c33.55648 0 61.37344 27.82208 61.37344 61.36832V635.12576c0 33.55648-27.82208 61.37856-61.37344 61.37856H81.12128v-0.8192z"  horiz-adv-x="1024" />

    
    <glyph glyph-name="zhuanxiangdijia" unicode="&#58972;" d="M520.142844-127.999488a20.47999 20.47999 0 0 0-7.321596 1.331199c-103.423948 39.52638-192.204704 108.851146-263.731069 206.028697-56.678372 77.004761-102.707149 171.571114-136.703931 281.08786C54.632677 545.945775 51.253478 708.096094 51.202278 714.956891a20.63359 20.63359 0 0 0 16.588792 20.633589c0.9216 0.2048 94.361553 19.04639 222.412689 65.279968 22.783989 8.191996 47.974376 22.374389 74.649563 37.375981C415.234096 866.713615 467.35567 896 520.194044 896h0.1024c66.457567 0 119.34714-30.105585 170.547115-59.23837 24.115188-13.721593 46.950377-26.726387 70.451164-36.147182a20.68479 20.68479 0 0 0-15.257592-38.399981c-26.111987 10.444795-51.199974 24.729588-75.468762 38.553581-48.639976 27.699186-94.719953 53.862373-150.271925 53.862373H520.194044c-42.035179 0-89.395155-26.623987-135.167933-52.428774-28.211186-15.871992-54.835173-30.873585-80.895959-40.24318A1859.07107 1859.07107 0 0 0 93.083857 698.777699c2.508799-46.131177 13.311993-180.73591 58.879971-326.963037 32.716784-104.908748 76.646362-195.174302 130.559935-268.287866 65.279967-88.575956 145.612727-152.166324 238.84788-189.132705 19.25119 5.734397 87.193556 30.105585 163.430319 106.137547 52.940774 52.838374 99.43035 119.91034 138.23993 199.3727 48.793576 99.83995 85.503957 219.54549 108.953546 355.839822a20.58239 20.58239 0 1 0 40.55038-7.065596c-24.371188-141.311929-62.668769-265.676667-113.817543-369.561416-41.215979-83.763158-90.879955-154.623923-147.609527-210.534294-97.996751-96.665552-183.142308-115.404742-186.726306-116.121542a20.42879 20.42879 0 0 0-4.198398-0.4608z m133.119933 698.367651a583.014108 583.014108 0 0 0-178.99511-98.611151H680.961964c18.943991 0 31.846384-3.942398 38.91198-11.775994 6.963197-7.884796 10.444795-21.145589 10.444795-39.73118v-209.049496c0-18.585591-3.481598-32.051184-10.495995-40.294379-7.014396-8.294396-19.96799-12.390394-38.91198-12.390394H353.282127c-19.35359 0-32.511984 4.095998-39.52638 12.390394-7.014396 8.243196-10.495995 21.708789-10.495995 40.294379V430.797033a819.45559 819.45559 0 0 0-51.865574-6.195197 54.118373 54.118373 0 0 0-23.142388 2.150399c-6.348797 2.252799-9.983995 7.526396-10.751995 15.871992-0.8704 9.471995 0.768 16.383992 4.915198 20.735989 4.095998 4.351998 12.339194 7.321596 24.678387 9.011196 85.196757 9.471995 158.515121 25.702387 220.05749 48.639975 61.439969 22.988789 112.639944 51.609574 153.343924 85.964758 9.062395 7.423996 16.486392 11.980794 22.220789 13.619193l-17.254392 18.63679a928.767536 928.767536 0 0 0-17.919991 19.81439c-14.387193 15.718392-15.206392 28.723186-2.457599 39.065581 6.963197 5.785597 13.158393 7.577596 18.534391 5.273597a66.559967 66.559967 0 0 0 19.097591-14.540792 1273.240963 1273.240963 0 0 0 63.590368-68.863966 1306.520947 1306.520947 0 0 0 59.90397-75.673562c6.553597-9.113595 9.830395-16.947192 9.830395-23.551988 0-6.655997-2.662399-12.236794-8.038396-16.793592-6.143997-5.785597-12.748794-7.526396-19.71199-5.222397-7.014396 2.252799-14.643193 9.215995-22.835189 20.735989a1226.853787 1226.853787 0 0 1-27.135986 36.607982 680.03806 680.03806 0 0 1-27.187187 32.870384 57.855971 57.855971 0 0 0-17.919991-18.585591zM414.312497 658.432119c-13.977593-23.551988-29.951985-46.591977-47.820776-69.119966-17.919991-22.579189-39.01438-44.390378-63.283169-65.484767-7.014396-6.195197-13.875193-9.523195-20.684789-9.932795a20.63359 20.63359 0 0 0-17.561591 8.089596c-4.966398 6.195197-6.707197 12.492794-5.273598 18.943991 1.433599 6.348797 6.655997 13.516793 15.769592 21.350389a496.537352 496.537352 0 0 1 58.009571 58.009571c15.206392 18.431991 28.364786 37.734381 39.475181 58.009571 4.556798 8.243196 9.676795 13.926393 15.462392 17.049591 5.734397 3.071998 12.287994 2.764799 19.71199-0.921599 14.438393-7.065596 16.486392-19.04639 6.143997-35.993582z m268.492666-241.919879a12.748794 12.748794 0 0 1-2.150399 7.475196c-1.484799 2.047999-3.583998 3.071998-6.502397 3.071998H362.498123c-4.915198 0-8.294396-0.8192-10.188795-2.457598-1.843199-1.689599-2.764799-4.351998-2.764799-8.089596v-35.942382h333.311834v35.942382z m0-79.97436h-333.311834v-44.697578h333.311834v44.697578z m0-88.729556h-333.311834v-31.641584c0-8.243196 2.662399-12.390394 8.038396-12.390394h316.620642c5.734397 0 8.652796 4.095998 8.652796 12.390394v31.641584zM535.349236 574.720161c0-16.588792-7.833596-24.831988-23.449588-24.831988a27.391986 27.391986 0 0 0-16.691192 4.966398c-4.505598 3.276798-6.809597 9.318395-6.809596 17.971191v137.727931c0 7.014396 2.201599 12.492794 6.502397 16.383992a23.398388 23.398388 0 0 0 16.383991 5.939197c6.963197 0 12.748794-1.996799 17.254392-5.887997a20.63359 20.63359 0 0 0 6.809596-16.435192v-135.833532z"  horiz-adv-x="1024" />

    
    <glyph glyph-name="plus" unicode="&#58890;" d="M426.666667 469.333333H0v-170.666666h426.666667v-426.666667h170.666666V298.666667h426.666667V469.333333H597.333333V896H426.666667v-426.666667z"  horiz-adv-x="1024" />

    
    <glyph glyph-name="weibiaoti-" unicode="&#58891;" d="M85.333333 179.2L0-128l307.2 85.333333 486.4 486.4-221.866667 221.866667L85.333333 179.2zM750.933333 853.333333L631.466667 733.866667l230.4-221.866667 119.466666 119.466667c59.733333 59.733333 59.733333 162.133333 0 221.866666-68.266667 59.733333-162.133333 59.733333-230.4 0z"  horiz-adv-x="1026" />

    
    <glyph glyph-name="wait" unicode="&#58900;" d="M558.080 337.92l-20.48 378.88h-56.32l-20.48-435.2 332.8-128 20.48 46.080-256 138.24zM1024 378.88c0-276.48-230.4-506.88-517.12-506.88-276.48 0-506.88 230.4-506.88 506.88 0 286.72 230.4 517.12 506.88 517.12 286.72 0 517.12-230.4 517.12-517.12z"  horiz-adv-x="1024" />

    
    <glyph glyph-name="wrong" unicode="&#58901;" d="M512 810.667c-234.667 0-426.667-192-426.667-426.667s192-426.667 426.667-426.667 426.667 192 426.667 426.667-192 426.667-426.667 426.667zM725.333 230.4l-59.733-59.733-153.6 153.6-153.6-153.6-59.733 59.733 153.6 153.6-153.6 153.6 59.733 59.733 153.6-153.6 153.6 153.6 59.733-59.733-153.6-153.6 153.6-153.6z"  horiz-adv-x="1024" />

    
    <glyph glyph-name="forbidden" unicode="&#58902;" d="M512 810.666667C277.333333 810.666667 85.333333 618.666667 85.333333 384s192-426.666667 426.666667-426.666667 426.666667 192 426.666667 426.666667S746.666667 810.666667 512 810.666667z m213.333333-469.333334H298.666667v85.333334h426.666666v-85.333334z"  horiz-adv-x="1024" />

    
    <glyph glyph-name="tanhao" unicode="&#58903;" d="M42.666667-42.666667h938.666666L512 768 42.666667-42.666667z m512 128h-85.333334v85.333334h85.333334v-85.333334z m0 170.666667h-85.333334v170.666667h85.333334v-170.666667z"  horiz-adv-x="1024" />

    
    <glyph glyph-name="tanhao_yuan" unicode="&#58904;" d="M512 810.666667C277.333333 810.666667 85.333333 618.666667 85.333333 384s192-426.666667 426.666667-426.666667 426.666667 192 426.666667 426.666667S746.666667 810.666667 512 810.666667z m42.666667-640h-85.333334v85.333333h85.333334v-85.333333z m0 170.666666h-85.333334V597.333333h85.333334v-256z"  horiz-adv-x="1024" />

    
    <glyph glyph-name="info" unicode="&#58906;" d="M512-42.666667C277.333333-42.666667 85.333333 149.333333 85.333333 384S277.333333 810.666667 512 810.666667s426.666667-192 426.666667-426.666667-192-426.666667-426.666667-426.666667z m42.666667 640h-85.333334v-85.333333h85.333334V597.333333z m0-170.666666h-85.333334v-256h85.333334v256z"  horiz-adv-x="1024" />

    
    <glyph glyph-name="guanbi" unicode="&#58907;" d="M1011.2 883.2c-12.8 12.8-51.2 12.8-64 0L512 448 76.8 883.2C64 896 25.6 896 12.8 883.2 0 870.4 0 832 12.8 819.2L448 384 12.8-51.2c-12.8-12.8-12.8-51.2 0-64 12.8-12.8 51.2-12.8 64 0L512 320l435.2-435.2c12.8-12.8 51.2-12.8 64 0 12.8 12.8 12.8 51.2 0 64L576 384 1011.2 819.2c12.8 12.8 12.8 51.2 0 64z"  horiz-adv-x="1024" />

    
    <glyph glyph-name="daohangkongzhi" unicode="&#58914;" d="M85.333333 213.333333h853.333334v-85.333333H85.333333zM85.333333 725.333333h853.333334v-85.333333H85.333333zM213.333333 554.666667l-128-128 128-128v85.333333h725.333334v85.333333H213.333333z"  horiz-adv-x="1024" />

    
    <glyph glyph-name="daohangkongzhi1" unicode="&#58915;" d="M85.333333 725.333333h853.333334v-85.333333H85.333333zM85.333333 213.333333h853.333334v-85.333333H85.333333zM810.666667 469.333333H85.333333v-85.333333h725.333334v-85.333333l128 128-128 128z"  horiz-adv-x="1024" />

    
    <glyph glyph-name="home" unicode="&#58916;" d="M426.666667 42.666667v256h170.666666v-256h213.333334v341.333333h128L512 768 85.333333 384h128v-341.333333z"  horiz-adv-x="1024" />

    
    <glyph glyph-name="fangdajing" unicode="&#58917;" d="M661.333333 298.666667h-34.133333l-12.8 12.8c42.666667 46.933333 68.266667 110.933333 68.266667 179.2C682.666667 644.266667 558.933333 768 405.333333 768S128 644.266667 128 490.666667 251.733333 213.333333 405.333333 213.333333c68.266667 0 132.266667 25.6 179.2 68.266667l12.8-12.8v-34.133333l213.333334-213.333334 64 64-213.333334 213.333334z m-256 0C298.666667 298.666667 213.333333 384 213.333333 490.666667S298.666667 682.666667 405.333333 682.666667 597.333333 597.333333 597.333333 490.666667 512 298.666667 405.333333 298.666667z"  horiz-adv-x="1024" />

    
    <glyph glyph-name="shuaxin" unicode="&#58918;" d="M750.933333 627.2C691.2 686.933333 605.866667 725.333333 512 725.333333c-187.733333 0-341.333333-153.6-341.333333-341.333333s153.6-341.333333 341.333333-341.333333c157.866667 0 290.133333 106.666667 328.533333 256h-89.6c-34.133333-98.133333-128-170.666667-238.933333-170.666667-140.8 0-256 115.2-256 256s115.2 256 256 256c72.533333 0 132.266667-29.866667 179.2-76.8L554.666667 426.666667h298.666666V725.333333l-102.4-98.133333z"  horiz-adv-x="1024" />

    
    <glyph glyph-name="guanbi2" unicode="&#58919;" d="M810.666667 622.933333L750.933333 682.666667 512 443.733333 273.066667 682.666667 213.333333 622.933333l238.933334-238.933333L213.333333 145.066667 273.066667 85.333333l238.933333 238.933334 238.933333-238.933334 59.733334 59.733334-238.933334 238.933333z"  horiz-adv-x="1024" />

    
    <glyph glyph-name="shezhi" unicode="&#58920;" d="M827.733333 341.333333c0 12.8 4.266667 25.6 4.266667 42.666667s0 29.866667-4.266667 42.666667l89.6 68.266666c8.533333 4.266667 8.533333 17.066667 4.266667 25.6l-85.333333 149.333334c-4.266667 8.533333-12.8 12.8-25.6 8.533333l-106.666667-42.666667c-21.333333 17.066667-46.933333 29.866667-72.533333 42.666667l-17.066667 110.933333c4.266667 12.8-8.533333 21.333333-17.066667 21.333334h-170.666666c-12.8 0-21.333333-8.533333-21.333334-17.066667l-17.066666-115.2c-25.6-8.533333-46.933333-25.6-72.533334-38.4L209.066667 682.666667c-8.533333 0-17.066667 0-25.6-12.8l-85.333334-149.333334c-4.266667-4.266667 0-17.066667 8.533334-25.6L196.266667 426.666667c0-12.8-4.266667-25.6-4.266667-42.666667s0-29.866667 4.266667-42.666667l-89.6-68.266666c-8.533333-4.266667-8.533333-17.066667-4.266667-25.6l85.333333-149.333334c4.266667-8.533333 17.066667-12.8 25.6-8.533333l106.666667 42.666667c21.333333-17.066667 46.933333-29.866667 72.533333-42.666667l17.066667-110.933333c0-8.533333 8.533333-17.066667 21.333333-17.066667h170.666667c8.533333 0 21.333333 8.533333 21.333333 17.066667l17.066667 110.933333c25.6 8.533333 51.2 25.6 72.533333 42.666667l106.666667-42.666667c8.533333-4.266667 21.333333 0 25.6 8.533333l85.333333 149.333334c4.266667 8.533333 4.266667 21.333333-4.266666 25.6L827.733333 341.333333zM512 234.666667c-81.066667 0-149.333333 68.266667-149.333333 149.333333s68.266667 149.333333 149.333333 149.333333 149.333333-68.266667 149.333333-149.333333-68.266667-149.333333-149.333333-149.333333z"  horiz-adv-x="1024" />

    
    <glyph glyph-name="xinxi" unicode="&#58921;" d="M853.333 810.667h-682.667c-46.933 0-85.333-38.4-85.333-85.333v-768l170.667 170.667h597.333c46.933 0 85.333 38.4 85.333 85.333v512c0 46.933-38.4 85.333-85.333 85.333zM384 426.667h-85.333v85.333h85.333v-85.333zM554.667 426.667h-85.333v85.333h85.333v-85.333zM725.333 426.667h-85.333v85.333h85.333v-85.333z"  horiz-adv-x="1024" />

    
    <glyph glyph-name="neirong" unicode="&#58922;" d="M597.333333 810.666667H256c-46.933333 0-85.333333-38.4-85.333333-85.333334v-682.666666c0-46.933333 38.4-85.333333 85.333333-85.333334h512c46.933333 0 85.333333 38.4 85.333333 85.333334V554.666667l-256 256z m85.333334-682.666667H341.333333v85.333333h341.333334v-85.333333z m0 170.666667H341.333333v85.333333h341.333334v-85.333333z m-128 213.333333V746.666667L789.333333 512H554.666667z"  horiz-adv-x="1024" />

    
    <glyph glyph-name="pintu" unicode="&#58923;" d="M384 682.667c0-70.692 57.308-128 128-128s128 57.308 128 128c0 70.692-57.308 128-128 128-70.692 0-128-57.308-128-128zM512 405.333c-102.4 93.867-234.667 149.333-384 149.333v-469.333c149.333 0 281.6-55.467 384-149.333 102.4 93.867 234.667 149.333 384 149.333v469.333c-149.333 0-281.6-55.467-384-149.333z"  horiz-adv-x="1024" />

    
    <glyph glyph-name="huodong" unicode="&#58924;" d="M874.667 768h-8.533l-226.133-89.6-256 89.6-238.933-81.067c-8.533-4.267-17.067-12.8-17.067-21.333v-644.267c0-12.8 8.533-21.333 21.333-21.333h8.533l226.133 89.6 256-89.6 238.933 81.067c8.533 4.267 17.067 8.533 17.067 21.333v644.267c0 12.8-8.533 21.333-21.333 21.333zM640 85.333l-256 89.6v507.733l256-89.6v-507.733z"  horiz-adv-x="1024" />

    
    <glyph glyph-name="shangpin" unicode="&#58925;" d="M733.866667 512l-187.733334 281.6c-8.533333 8.533333-21.333333 17.066667-34.133333 17.066667s-25.6-4.266667-34.133333-17.066667L290.133333 512H85.333333c-21.333333 0-42.666667-17.066667-42.666666-42.666667v-12.8l106.666666-396.8c8.533333-34.133333 42.666667-64 81.066667-64h554.666667c38.4 0 72.533333 25.6 81.066666 64l106.666667 396.8V469.333333c0 25.6-21.333333 42.666667-42.666667 42.666667h-196.266666zM384 512l128 187.733333L640 512H384z m128-341.333333c-46.933333 0-85.333333 38.4-85.333333 85.333333s38.4 85.333333 85.333333 85.333333 85.333333-38.4 85.333333-85.333333-38.4-85.333333-85.333333-85.333333z"  horiz-adv-x="1024" />

    
    <glyph glyph-name="qunzu" unicode="&#58926;" d="M682.666667 426.666667c72.533333 0 128 55.466667 128 128s-55.466667 128-128 128-128-55.466667-128-128 55.466667-128 128-128z m-341.333334 0c72.533333 0 128 55.466667 128 128S413.866667 682.666667 341.333333 682.666667 213.333333 627.2 213.333333 554.666667s55.466667-128 128-128z m0-85.333334c-98.133333 0-298.666667-51.2-298.666666-149.333333V85.333333h597.333333v106.666667c0 98.133333-200.533333 149.333333-298.666667 149.333333z m341.333334 0c-12.8 0-25.6 0-42.666667-4.266666 51.2-34.133333 85.333333-85.333333 85.333333-145.066667V85.333333h256v106.666667c0 98.133333-200.533333 149.333333-298.666666 149.333333z"  horiz-adv-x="1024" />

    
    <glyph glyph-name="qianbao" unicode="&#58927;" d="M512 554.666667v-341.333334h426.666667V554.666667H512z m170.666667-234.666667c-34.133333 0-64 29.866667-64 64s29.866667 64 64 64 64-29.866667 64-64-29.866667-64-64-64zM426.666667 213.333333V554.666667c0 46.933333 38.4 85.333333 85.333333 85.333333h384V682.666667c0 46.933333-38.4 85.333333-85.333333 85.333333H213.333333c-46.933333 0-85.333333-38.4-85.333333-85.333333v-597.333334c0-46.933333 38.4-85.333333 85.333333-85.333333h597.333334c46.933333 0 85.333333 38.4 85.333333 85.333333v42.666667h-384c-46.933333 0-85.333333 38.4-85.333333 85.333333z"  horiz-adv-x="1024" />

    
    <glyph glyph-name="duigoudunpai" unicode="&#58928;" d="M512 853.333333L128 682.666667v-256c0-234.666667 162.133333-456.533333 384-512 221.866667 55.466667 384 277.333333 384 512V682.666667l-384 170.666666z m-85.333333-682.666666l-170.666667 170.666666 59.733333 59.733334 110.933334-110.933334 281.6 281.6L768 512l-341.333333-341.333333z"  horiz-adv-x="1024" />

    
    <glyph glyph-name="daojiantou" unicode="&#58929;" d="M492.8 198.4c19.2-12.8 44.8-6.4 57.6 6.4l332.8 300.8c19.2 19.2 19.2 44.8 0 57.6-19.2 12.8-51.2 12.8-70.4 0L512 294.4 211.2 563.2C192 576 160 576 140.8 563.2c-6.4-6.4-12.8-19.2-12.8-32 0-6.4 6.4-19.2 12.8-25.6l339.2-300.8c6.4-6.4 6.4-6.4 12.8-6.4z"  horiz-adv-x="1024" />

    
    <glyph glyph-name="duoxuan" unicode="&#58946;" d="M1001.244444 702.577778l-5.688888 5.688889c-22.755556 5.688889-45.511111 0-62.577778-11.377778l-341.333334-284.444445c-22.755556-17.066667-56.888889-17.066667-79.644444 0L415.288889 480.711111c-22.755556 11.377778-45.511111 17.066667-68.266667 5.688889l-5.688889-5.688889v-5.688889c-5.688889-22.755556 0-45.511111 17.066667-62.577778l142.222222-147.911111c11.377778-11.377778 28.444444-17.066667 45.511111-17.066666 17.066667 0 34.133333 5.688889 45.511111 17.066666l386.844445 381.155556c17.066667 11.377778 22.755556 34.133333 22.755555 56.888889zM853.333333 42.666667H170.666667V725.333333h682.666666v-34.133333l73.955556 62.577778c11.377778 11.377778 22.755556 11.377778 39.822222 17.066666V839.111111H56.888889v-910.222222h910.222222V571.733333l-113.777778-113.777777V42.666667z"  horiz-adv-x="1024" />

    
    <glyph glyph-name="danxuan" unicode="&#58947;" d="M449.422222 406.755556L358.4 480.711111c-22.755556 11.377778-45.511111 17.066667-68.266667 5.688889l-5.688889-5.688889v-5.688889c-5.688889-22.755556 0-45.511111 17.066667-62.577778l142.222222-147.911111c11.377778-11.377778 28.444444-17.066667 45.511111-17.066666 17.066667 0 34.133333 5.688889 45.511112 17.066666l386.844444 381.155556c17.066667 17.066667 22.755556 39.822222 17.066667 62.577778v5.688889h-5.688889c-22.755556 5.688889-45.511111 0-62.577778-11.377778l-341.333333-284.444445c-22.755556-28.444444-56.888889-28.444444-79.644445-11.377777zM921.6 583.111111L836.266667 497.777778c11.377778-34.133333 17.066667-73.955556 17.066666-113.777778 0-187.733333-153.6-341.333333-341.333333-341.333333s-341.333333 153.6-341.333333 341.333333 153.6 341.333333 341.333333 341.333333c85.333333 0 164.977778-34.133333 227.555556-85.333333l85.333333 73.955556C745.244444 793.6 631.466667 839.111111 512 839.111111 261.688889 839.111111 56.888889 634.311111 56.888889 384s204.8-455.111111 455.111111-455.111111 455.111111 204.8 455.111111 455.111111c0 73.955556-17.066667 136.533333-45.511111 199.111111z"  horiz-adv-x="1024" />

    
    <glyph glyph-name="duohangwenben" unicode="&#58948;" d="M56.888889 839.111111v-910.222222h910.222222V839.111111H56.888889z m796.444444-796.444444H170.666667V725.333333h682.666666v-682.666666zM227.555556 440.888889h568.888888v-113.777778H227.555556zM227.555556 611.555556h568.888888v-113.777778H227.555556zM227.555556 270.222222h568.888888v-113.777778H227.555556z"  horiz-adv-x="1024" />

    
    <glyph glyph-name="danhangwenben" unicode="&#58949;" d="M56.888889 839.111111v-910.222222h910.222222V839.111111H56.888889z m796.444444-796.444444H170.666667V725.333333h682.666666v-682.666666zM227.555556 440.888889h568.888888v-113.777778H227.555556z"  horiz-adv-x="1024" />

    
    <glyph glyph-name="suofang_suo" unicode="&#58950;" d="M772.266667 584.533333L896 708.266667 836.266667 768l-123.733334-123.733333-98.133333 98.133333v-256h256zM251.733333 183.466667L128 59.733333 187.733333 0l123.733334 123.733333 98.133333-98.133333v256h-256zM870.4 281.6h-256v-256l98.133333 98.133333 123.733334-123.733333 59.733333 59.733333-123.733333 123.733334zM187.733333 768L128 708.266667l123.733333-123.733334-98.133333-98.133333h256v256L311.466667 644.266667z"  horiz-adv-x="1024" />

    
    <glyph glyph-name="suofang_fang" unicode="&#58951;" d="M349.866667 281.6l-123.733334-123.733333L128 256v-256h256l-98.133333 98.133333 123.733333 123.733334zM384 768H128v-256l98.133333 98.133333 123.733334-123.733333 59.733333 59.733333-123.733333 123.733334zM674.133333 281.6l-59.733333-59.733333 123.733333-123.733334L640 0h256v256l-98.133333-98.133333zM640 768l98.133333-98.133333-123.733333-123.733334 59.733333-59.733333 123.733334 123.733333L896 512V768z"  horiz-adv-x="1024" />

    
    <glyph glyph-name="iconadd" unicode="&#58952;" d="M981.333333 426.666667H554.666667V853.333333c0 25.6-17.066667 42.666667-42.666667 42.666667s-42.666667-17.066667-42.666667-42.666667v-426.666666H42.666667c-25.6 0-42.666667-17.066667-42.666667-42.666667s17.066667-42.666667 42.666667-42.666667h426.666666v-426.666666c0-25.6 17.066667-42.666667 42.666667-42.666667s42.666667 17.066667 42.666667 42.666667V341.333333h426.666666c25.6 0 42.666667 17.066667 42.666667 42.666667s-17.066667 42.666667-42.666667 42.666667z"  horiz-adv-x="1024" />

    
    <glyph glyph-name="jianjiantou" unicode="&#58960;" d="M532.992 565.76c-19.456 12.8-44.544 6.656-57.344-6.144l-332.8-301.056c-19.456-19.456-19.456-44.544 0-57.856 19.456-12.8 51.2-12.8 70.656 0l300.544 268.8 301.056-268.8c18.944-12.8 51.2-12.8 70.144 0 6.144 6.144 12.8 19.456 12.8 31.744 0 6.144-6.144 19.456-12.8 25.6l-338.944 300.544c-7.168 7.168-7.168 7.168-13.312 7.168z"  horiz-adv-x="1024" />

    
    <glyph glyph-name="Artboard" unicode="&#58962;" d="M537.6 341.333333h166.4v-170.666666h-166.4zM802.133333 682.666667H768V768h-110.933333v-85.333333H366.933333V768H256v-85.333333h-34.133333C192 682.666667 170.666667 661.333333 170.666667 631.466667v-580.266667c0-29.866667 21.333333-51.2 51.2-51.2h580.266666c25.6 0 51.2 21.333333 51.2 51.2V631.466667c0 29.866667-21.333333 51.2-51.2 51.2zM768 81.066667H256V512h512v-430.933333z"  horiz-adv-x="1024" />

    
    <glyph glyph-name="jiahao" unicode="&#58964;" d="M853.333333 332.8H563.2V42.666667H460.8V332.8H170.666667V435.2h290.133333V725.333333h102.4v-290.133333H853.333333z"  horiz-adv-x="1024" />

    
    <glyph glyph-name="xialajiantou" unicode="&#58965;" d="M315.733333 554.666667l196.266667-196.266667L708.266667 554.666667 768 494.933333l-256-256-256 256z"  horiz-adv-x="1024" />

    
    <glyph glyph-name="shandian" unicode="&#58966;" d="M819.2 793.6l-281.6-92.16L204.8 337.92l358.4-5.12-250.88-358.4L819.2 435.2l-348.16-10.24z"  horiz-adv-x="1024" />

    
    <glyph glyph-name="xiazai" unicode="&#58967;" d="M812.8 512H640V768H384v-256H211.2L512 211.2zM211.2 128h595.2v-83.2H211.2z"  horiz-adv-x="1024" />

    
    <glyph glyph-name="tubiao_fenxiang" unicode="&#58968;" d="M853.333333 128c46.933333 0 85.333333 38.4 85.333334 85.333333V640c0 46.933333-38.4 85.333333-85.333334 85.333333H170.666667c-46.933333 0-85.333333-38.4-85.333334-85.333333v-426.666667c0-46.933333 38.4-85.333333 85.333334-85.333333H0v-85.333333h1024v85.333333h-170.666667z m-298.666666 149.333333v93.866667c-119.466667 0-196.266667-38.4-256-115.2 25.6 115.2 89.6 226.133333 256 251.733333V597.333333l170.666666-157.866666-170.666666-162.133334z"  horiz-adv-x="1024" />

    
    <glyph glyph-name="icon_back" unicode="&#58974;" d="M896 426.666667H290.133333l153.6 153.6L384 640l-256-256 256-256 59.733333 59.733333L290.133333 341.333333H896z"  horiz-adv-x="1024" />

    
    <glyph glyph-name="yes" unicode="&#58975;" d="M838.4 659.2L384 204.8 204.8 384l-57.6-57.6L384 83.2l512 512z"  horiz-adv-x="1024" />

    
    <glyph glyph-name="dengpao" unicode="&#58978;" d="M512 810.666667C345.6 810.666667 213.333333 678.4 213.333333 512c0-102.4 51.2-192 128-243.2V170.666667c0-21.333333 21.333333-42.666667 42.666667-42.666667h256c21.333333 0 42.666667 21.333333 42.666667 42.666667v98.133333c76.8 55.466667 128 145.066667 128 243.2 0 166.4-132.266667 298.666667-298.666667 298.666667z m119.466667-473.6l-34.133334-25.6V213.333333h-170.666666v98.133334l-34.133334 25.6C332.8 375.466667 298.666667 443.733333 298.666667 512c0 119.466667 93.866667 213.333333 213.333333 213.333333s213.333333-93.866667 213.333333-213.333333c0-68.266667-34.133333-136.533333-93.866666-174.933333zM384 0c0-21.333333 21.333333-42.666667 42.666667-42.666667h170.666666c21.333333 0 42.666667 21.333333 42.666667 42.666667v42.666667H384v-42.666667z"  horiz-adv-x="1024" />

    
    <glyph glyph-name="icon_right" unicode="&#58979;" d="M512 810.666667C277.333333 810.666667 85.333333 618.666667 85.333333 384s192-426.666667 426.666667-426.666667 426.666667 192 426.666667 426.666667S746.666667 810.666667 512 810.666667z m-85.333333-640l-213.333334 213.333333 59.733334 59.733333 153.6-153.6 324.266666 324.266667L810.666667 554.666667l-384-384z"  horiz-adv-x="1024" />

    
    <glyph glyph-name="xiaochuizi" unicode="&#58953;" d="M222.165333 551.722667l120.746667 120.618666 603.050667-603.733333-120.746667-120.618667zM402.602667 733.013333L523.264 853.717333l241.408-241.322666-120.661333-120.746667zM40.533333 370.261333l120.661334 120.704 241.365333-241.365333-120.704-120.661333zM42.666667 0h512v-85.333333H42.666667z"  horiz-adv-x="1024" />

    
    <glyph glyph-name="xiaochilun" unicode="&#58954;" d="M512 384m-85.333333 0a85.333333 85.333333 0 1 1 170.666666 0 85.333333 85.333333 0 1 1-170.666666 0ZM810.666667 768H213.333333c-46.933333 0-85.333333-38.4-85.333333-85.333333v-597.333334c0-46.933333 38.4-85.333333 85.333333-85.333333h597.333334c46.933333 0 85.333333 38.4 85.333333 85.333333V682.666667c0 46.933333-38.4 85.333333-85.333333 85.333333z m-76.8-384v-29.866667l64-51.2c4.266667-4.266667 8.533333-12.8 4.266666-17.066666l-59.733333-102.4c-4.266667-4.266667-12.8-8.533333-17.066667-4.266667l-72.533333 29.866667c-17.066667-12.8-34.133333-21.333333-51.2-29.866667l-12.8-81.066667c0-8.533333-8.533333-12.8-12.8-12.8h-119.466667c-8.533333 0-12.8 4.266667-12.8 12.8l-17.066666 76.8c-17.066667 8.533333-34.133333 17.066667-51.2 29.866667l-72.533334-29.866667c-8.533333-4.266667-12.8 0-17.066666 8.533334l-59.733334 102.4c-4.266667 4.266667 0 12.8 4.266667 21.333333l64 51.2v29.866667 29.866666L230.4 469.333333c-8.533333 0-8.533333 4.266667-8.533333 12.8l59.733333 102.4c4.266667 4.266667 12.8 8.533333 17.066667 4.266667l72.533333-29.866667c21.333333 12.8 38.4 25.6 55.466667 29.866667l12.8 81.066667c0 8.533333 8.533333 12.8 12.8 12.8h119.466666c8.533333 0 12.8-4.266667 12.8-12.8l12.8-76.8c17.066667-8.533333 34.133333-17.066667 51.2-29.866667l72.533334 29.866667c8.533333 4.266667 12.8 0 17.066666-4.266667l59.733334-102.4c4.266667-4.266667 0-12.8-4.266667-21.333333l-64-51.2c4.266667-8.533333 4.266667-21.333333 4.266667-29.866667z"  horiz-adv-x="1024" />

    
    <glyph glyph-name="jieru" unicode="&#58955;" d="M213.333333 810.666667c0 21.333333-21.333333 42.666667-42.666666 42.666666s-42.666667-21.333333-42.666667-42.666666v-170.666667H42.666667v-256h256V640H213.333333V810.666667zM384 213.333333c0-55.466667 34.133333-102.4 85.333333-119.466666V-85.333333h85.333334v179.2c51.2 17.066667 85.333333 64 85.333333 119.466666v85.333334H384v-85.333334zM42.666667 213.333333c0-55.466667 34.133333-102.4 85.333333-119.466666V-85.333333h85.333333v179.2c51.2 17.066667 85.333333 64 85.333334 119.466666v85.333334H42.666667v-85.333334zM725.333333 213.333333c0-55.466667 34.133333-102.4 85.333334-119.466666V-85.333333h85.333333v179.2c51.2 17.066667 85.333333 64 85.333333 119.466666v85.333334h-256v-85.333334zM896 640V810.666667c0 21.333333-21.333333 42.666667-42.666667 42.666666s-42.666667-21.333333-42.666666-42.666666v-170.666667h-85.333334v-256h256V640h-85.333333zM554.666667 810.666667c0 21.333333-21.333333 42.666667-42.666667 42.666666s-42.666667-21.333333-42.666667-42.666666v-170.666667H384v-256h256V640h-85.333333V810.666667z"  horiz-adv-x="1024" />

    
    <glyph glyph-name="piliangdaoru" unicode="&#58956;" d="M170.666667 640H85.333333v-597.333333c0-46.933333 38.4-85.333333 85.333334-85.333334h597.333333v85.333334H170.666667V640zM853.333333 810.666667H341.333333c-46.933333 0-85.333333-38.4-85.333333-85.333334v-512c0-46.933333 38.4-85.333333 85.333333-85.333333h512c46.933333 0 85.333333 38.4 85.333334 85.333333V725.333333c0 46.933333-38.4 85.333333-85.333334 85.333334z m-42.666666-384h-170.666667v-170.666667h-85.333333v170.666667H384V512h170.666667V682.666667h85.333333v-170.666667h170.666667v-85.333333z"  horiz-adv-x="1024" />

    
    <glyph glyph-name="bianji" unicode="&#58957;" d="M883.2 657.066667l-98.133333 98.133333c-17.066667 17.066667-42.666667 17.066667-59.733334 0l-76.8-76.8L810.666667 516.266667 883.2 597.333333c17.066667 12.8 17.066667 42.666667 0 59.733334zM128 162.133333V0h162.133333l469.333334 473.6-157.866667 157.866667z"  horiz-adv-x="1024" />

    
    <glyph glyph-name="shangchuansucaitu" unicode="&#58958;" d="M554.666667 298.666667m-136.533334 0a136.533333 136.533333 0 1 1 273.066667 0 136.533333 136.533333 0 1 1-273.066667 0ZM128 512h85.333333V640h128V725.333333H213.333333V853.333333H128v-128H0v-85.333333h128zM896 640h-136.533333L682.666667 725.333333H384v-128H256v-128H128v-426.666666c0-46.933333 38.4-85.333333 85.333333-85.333334h682.666667c46.933333 0 85.333333 38.4 85.333333 85.333334V554.666667c0 46.933333-38.4 85.333333-85.333333 85.333333z m-341.333333-554.666667c-119.466667 0-213.333333 93.866667-213.333334 213.333334s93.866667 213.333333 213.333334 213.333333 213.333333-93.866667 213.333333-213.333333-93.866667-213.333333-213.333333-213.333334z"  horiz-adv-x="1024" />

    
    <glyph glyph-name="biezhen" unicode="&#58959;" d="M85.333333 362.666667C85.333333 490.666667 192 597.333333 320 597.333333H768c93.866667 0 170.666667-76.8 170.666667-170.666666s-76.8-170.666667-170.666667-170.666667H405.333333C345.6 256 298.666667 302.933333 298.666667 362.666667S345.6 469.333333 405.333333 469.333333H725.333333v-85.333333H401.066667c-25.6 0-25.6-42.666667 0-42.666667H768c46.933333 0 85.333333 38.4 85.333333 85.333334s-38.4 85.333333-85.333333 85.333333H320C238.933333 512 170.666667 443.733333 170.666667 362.666667S238.933333 213.333333 320 213.333333H725.333333v-85.333333H320c-128 0-234.666667 106.666667-234.666667 234.666667z"  horiz-adv-x="1024" />

    
    <glyph glyph-name="icon_weixin" unicode="&#58961;" d="M972.8 296.96c0 112.64-102.4 204.8-232.96 215.04H716.8c-140.8 0-256-97.28-256-215.04v-15.36c0-2.56 0-7.68 2.56-10.24v-2.56c0-5.12 2.56-10.24 2.56-12.8v-2.56c0-5.12 2.56-7.68 2.56-10.24v-2.56c2.56-7.68 7.68-17.92 10.24-25.6v-2.56c2.56-5.12 5.12-7.68 7.68-12.8 2.56-5.12 5.12-7.68 7.68-12.8 46.08-61.44 125.44-102.4 217.6-102.4 43.52 0 84.48 10.24 120.32 25.6L921.6 51.2l-25.6 89.6c46.08 40.96 76.8 94.72 76.8 156.16zM645.12 332.8c-17.92 0-30.72 15.36-30.72 33.28 0 17.92 15.36 33.28 30.72 33.28 17.92 0 30.72-15.36 30.72-33.28s-12.8-33.28-30.72-33.28z m153.6 0c-17.92 0-30.72 15.36-30.72 33.28 0 17.92 15.36 33.28 30.72 33.28 17.92 0 30.72-15.36 30.72-33.28s-12.8-33.28-30.72-33.28zM678.4 535.04h12.8C647.68 640 524.8 716.8 378.88 716.8 197.12 716.8 51.2 596.48 51.2 448c0-76.8 38.4-145.92 102.4-194.56L130.56 153.6l87.04 61.44c48.64-23.04 102.4-35.84 161.28-35.84 17.92 0 35.84 0 51.2 2.56-23.04 33.28-35.84 71.68-35.84 115.2 2.56 130.56 128 238.08 284.16 238.08zM483.84 614.4c20.48 0 35.84-15.36 35.84-35.84 0-20.48-15.36-35.84-35.84-35.84-20.48 0-35.84 15.36-35.84 35.84 0 20.48 15.36 35.84 35.84 35.84z m-192-71.68c-20.48 0-35.84 15.36-35.84 35.84s15.36 35.84 35.84 35.84c20.48 0 35.84-15.36 35.84-35.84s-17.92-35.84-35.84-35.84z"  horiz-adv-x="1024" />

    
    <glyph glyph-name="meiyoujieguo" unicode="&#59034;" d="M512.784-93.872c-263.936 0-478.656 214.736-478.656 478.672 0 263.952 214.72 478.672 478.656 478.672 263.952 0 478.672-214.72 478.672-478.672 0.016-263.936-214.72-478.672-478.672-478.672z m0 905.056c-235.104 0-426.368-191.28-426.368-426.384 0-235.12 191.264-426.4 426.384-426.4 235.104 0 426.384 191.28 426.384 426.384 0 235.12-191.28 426.4-426.4 426.4zM353.824 404.8c-5.664 0-11.328 2.16-15.648 6.48l-107.36 107.376a22.128 22.128 0 1 0 31.296 31.312l107.36-107.376a22.112 22.112 0 0 0-15.648-37.792zM246.464 404.8a22.128 22.128 0 0 0-15.664 37.776l107.36 107.376a22.16 22.16 0 0 0 31.312-31.312l-107.36-107.376c-4.32-4.304-9.984-6.464-15.648-6.464zM779.088 404.8c-5.664 0-11.328 2.16-15.664 6.48l-107.36 107.376a22.16 22.16 0 0 0 31.296 31.312l107.36-107.376a22.128 22.128 0 0 0-15.632-37.792zM671.728 404.8a22.128 22.128 0 0 0-15.664 37.776l107.376 107.376a22.16 22.16 0 0 0 31.296 0 22.176 22.176 0 0 0 0-31.312l-107.376-107.376a22.048 22.048 0 0 0-15.632-6.464zM353.52 148.688c-5.488 0-11.008 2.048-15.28 6.128l-39.824 38.064a22.112 22.112 0 1 0 30.592 32l24.512-23.44 64.336 61.504a22.08 22.08 0 0 0 30.576 0l64.288-61.504 64.336 61.504a22.112 22.112 0 0 0 30.576 0l64.4-61.52 24.576 23.456a22.112 22.112 0 1 0 30.56-32.016l-39.856-38.064c-8.56-8.16-22.032-8.16-30.56 0l-64.384 61.552L528 154.8c-8.544-8.16-22.048-8.16-30.592 0.016L433.12 216.32l-64.288-61.504a22.096 22.096 0 0 0-15.312-6.128z"  horiz-adv-x="1024" />

    
    <glyph glyph-name="huodong3" unicode="&#59032;" d="M1002.666667 200.098133H512V322.7648H205.431467v490.666667h429.2352v-122.666667H1002.666667l-122.666667-245.333333 122.666667-245.333334zM82.7648-106.666667c-33.954133 0-61.431467 27.477333-61.431467 61.2352V813.2352A61.397333 61.397333 0 0 0 82.7648 874.666667a61.397333 61.397333 0 0 0 61.431467-61.431467v-858.666667c-0.196267-33.757867-27.6736-61.2352-61.431467-61.2352z"  horiz-adv-x="1024" />

    
    <glyph glyph-name="icon_qiandao" unicode="&#58976;" d="M793.6 448c-21.333333 170.666667-166.4 302.933333-341.333333 302.933333-192 0-345.6-153.6-345.6-345.6s153.6-345.6 345.6-345.6c38.4 0 72.533333 4.266667 106.666666 17.066667l8.533334 59.733333 29.866666 34.133334 196.266667 277.333333z m-213.333333 110.933333c25.6 0 46.933333-21.333333 46.933333-46.933333s-21.333333-46.933333-46.933333-46.933333c-25.6 0-46.933333 21.333333-46.933334 46.933333s21.333333 46.933333 46.933334 46.933333z m-273.066667 0c25.6 0 46.933333-21.333333 46.933333-46.933333s-21.333333-46.933333-46.933333-46.933333c-25.6 0-46.933333 21.333333-46.933333 46.933333s21.333333 46.933333 46.933333 46.933333z m140.8-366.933333c-85.333333 0-157.866667 55.466667-179.2 136.533333-4.266667 12.8 4.266667 29.866667 17.066667 34.133334 12.8 4.266667 29.866667-4.266667 34.133333-17.066667 17.066667-59.733333 68.266667-98.133333 132.266667-98.133333 59.733333 0 115.2 38.4 132.266666 98.133333 4.266667 12.8 17.066667 21.333333 34.133334 17.066667 12.8-4.266667 21.333333-17.066667 17.066666-34.133334-29.866667-81.066667-102.4-136.533333-187.733333-136.533333zM900.266667 439.466667l-8.533334 8.533333c-17.066667 12.8-42.666667 8.533333-55.466666-8.533333l-221.866667-302.933334 72.533333-55.466666 221.866667 302.933333c12.8 17.066667 8.533333 42.666667-8.533333 55.466667zM580.266667 12.8l89.6 46.933333-76.8 51.2z"  horiz-adv-x="1024" />

    
    <glyph glyph-name="icon_zhuzhuangtu" unicode="&#58977;" d="M345.6 622.933333H469.333333V170.666667H345.6zM755.2 759.466667h123.733333V170.666667h-123.733333zM550.4 486.4h123.733333V170.666667h-123.733333zM140.8 349.866667h123.733333V170.666667H140.8zM98.133333 89.6h823.466667v-81.066667H98.133333z"  horiz-adv-x="1024" />

    
    <glyph glyph-name="icon_liwu" unicode="&#58980;" d="M622.933333 482.133333c76.8 29.866667 170.666667 72.533333 179.2 115.2 12.8 68.266667-59.733333 136.533333-106.666666 162.133334-4.266667 4.266667-25.6 8.533333-34.133334 4.266666-42.666667-25.6-110.933333-149.333333-149.333333-230.4-34.133333 81.066667-106.666667 204.8-145.066667 230.4-8.533333 4.266667-29.866667 0-34.133333-4.266666-46.933333-25.6-123.733333-89.6-110.933333-162.133334 8.533333-42.666667 98.133333-85.333333 174.933333-115.2h-213.333333l25.6-217.6h277.333333v187.733334c8.533333-4.266667 12.8-4.266667 12.8-4.266667l12.8 8.533333 8.533333-4.266666s4.266667 0 17.066667 4.266666v-187.733333h268.8l29.866667 217.6h-213.333334z m21.333334 170.666667c4.266667 4.266667 12.8 4.266667 17.066666 0 12.8-12.8 38.4-34.133333 34.133334-51.2 0-25.6-102.4-68.266667-102.4-68.266667 4.266667 59.733333 38.4 102.4 51.2 119.466667zM324.266667 605.866667c0 17.066667 21.333333 38.4 34.133333 51.2 4.266667 4.266667 12.8 4.266667 17.066667 0 17.066667-21.333333 51.2-64 51.2-123.733334 0 0-98.133333 46.933333-102.4 72.533334zM537.6 0h234.666667l29.866666 217.6h-264.533333zM238.933333 0h247.466667v217.6H213.333333z"  horiz-adv-x="1024" />

    
    <glyph glyph-name="danxuan_xuanzhong" unicode="&#58981;" d="M512 809C277.3 809 87 618.7 87 384s190.3-425 425-425 425 190.3 425 425S746.7 809 512 809z m249.6-674.6c-32.4-32.4-70.2-57.9-112.2-75.7C605.9 40.3 559.7 31 512 31s-93.9 9.3-137.4 27.7c-42 17.8-79.8 43.2-112.2 75.7s-57.9 70.2-75.7 112.2C168.3 290.1 159 336.3 159 384s9.3 93.9 27.7 137.4c17.8 42 43.2 79.8 75.7 112.2 32.4 32.4 70.2 57.9 112.2 75.7C418.1 727.7 464.3 737 512 737s93.9-9.3 137.4-27.7c42-17.8 79.8-43.2 112.2-75.7 32.4-32.4 57.9-70.2 75.7-112.2C855.7 477.9 865 431.7 865 384s-9.3-93.9-27.7-137.4c-17.8-42-43.2-79.8-75.7-112.2zM512 384m-216 0a216 216 0 1 1 432 0 216 216 0 1 1-432 0Z"  horiz-adv-x="1024" />

    
    <glyph glyph-name="fanhui" unicode="&#58982;" d="M640 189.5l-143 143-51.5 51.5 51.5 51.5 143 143c3.6 3.6 6.4 8 8.3 12.8 1.5 3.9 2.3 8.2 2.3 12.6 0 19.9-16.1 36-36 36-4.4 0-8.7-0.8-12.6-2.3-4.9-1.8-9.2-4.7-12.8-8.3L397.6 438c-1.7-1.5-3.4-3.2-4.9-4.9-11.9-12.9-19.1-30.1-19.1-49.1 0-18.9 7.3-36.2 19.1-49.1 1.6-1.7 3.2-3.3 4.9-4.9L589 138.6c3.6-3.6 8-6.4 12.8-8.3 3.9-1.5 8.2-2.3 12.6-2.3 19.9 0 36 16.1 36 36 0 4.4-0.8 8.7-2.3 12.6-1.7 4.9-4.5 9.3-8.1 12.9z"  horiz-adv-x="1024" />

    
    <glyph glyph-name="danxuan_moren" unicode="&#58983;" d="M512 737c47.7 0 93.9-9.3 137.4-27.7 42-17.8 79.8-43.2 112.2-75.7 32.4-32.4 57.9-70.2 75.7-112.2C855.7 477.9 865 431.7 865 384s-9.3-93.9-27.7-137.4c-17.8-42-43.2-79.8-75.7-112.2-32.4-32.4-70.2-57.9-112.2-75.7C605.9 40.3 559.7 31 512 31s-93.9 9.3-137.4 27.7c-42 17.8-79.8 43.2-112.2 75.7-32.4 32.4-57.9 70.2-75.7 112.2C168.3 290.1 159 336.3 159 384s9.3 93.9 27.7 137.4c17.8 42 43.2 79.8 75.7 112.2 32.4 32.4 70.2 57.9 112.2 75.7C418.1 727.7 464.3 737 512 737m0 72C277.3 809 87 618.7 87 384s190.3-425 425-425 425 190.3 425 425S746.7 809 512 809z"  horiz-adv-x="1024" />

    
    <glyph glyph-name="duoxuan_xuanzhong_kongxin" unicode="&#58984;" d="M266.7 367.3c1.1-1.3 2.4-2.6 3.7-3.7l113-113.2c1.7-1.9 3.5-3.7 5.3-5.4 12.8-11.5 29.7-18.5 48.2-18.5 18.2 0 34.8 6.8 47.5 17.9 2.4 2.1 4.6 4.3 6.7 6.7l253.4 253.4c3.6 3.6 6.4 8 8.3 12.8 1.5 3.9 2.3 8.2 2.3 12.6 0 19.9-16.1 36-36 36-4.4 0-8.7-0.8-12.6-2.3-4.9-1.8-9.2-4.7-12.8-8.3l-256.6-256.4-116.6 116.4c-3.8 4.1-8.6 7.3-13.9 9.3-3.9 1.4-8.1 2.2-12.5 2.2-19.9 0-36-16.1-36-36 0-4.4 0.8-8.6 2.2-12.5 1.4-4 3.7-7.7 6.4-11zM861 769h-698c-19.9 0-36-16.1-36-36v-696c0-19.9 16.1-36 36-36h698c19.9 0 36 16.1 36 36v696c0 19.9-16.1 36-36 36zM825 73h-626v624h626v-624z"  horiz-adv-x="1024" />

    
    <glyph glyph-name="duoxuan_xuanzhong_shixin" unicode="&#58985;" d="M861 768H163c-19.9 0-36-16.1-36-36v-696c0-19.9 16.1-36 36-36h698c19.9 0 36 16.1 36 36V732c0 19.9-16.1 36-36 36zM758.3 505.1c-1.8-4.9-4.7-9.2-8.3-12.8L496.6 238.8c-2.1-2.4-4.3-4.6-6.7-6.7-12.7-11.1-29.3-17.9-47.5-17.9-18.5 0-35.4 7-48.2 18.5-1.9 1.7-3.7 3.5-5.3 5.4l-113 113.2c-1.3 1.1-2.6 2.4-3.7 3.7-2.8 3.2-5 6.9-6.5 11-1.4 3.9-2.2 8.1-2.2 12.5 0 19.9 16.1 36 36 36 4.4 0 8.6-0.8 12.5-2.2 5.4-2 10.1-5.2 13.9-9.3l65.8-65.7 50.8-50.7 50.7 50.7 205.9 205.9c3.6 3.6 8 6.4 12.8 8.3 3.9 1.5 8.2 2.3 12.6 2.3 19.9 0 36-16.1 36-36 0.1-4.5-0.8-8.8-2.2-12.7z"  horiz-adv-x="1024" />

    
    <glyph glyph-name="duoxuan_moren" unicode="&#58986;" d="M861 769H163c-19.9 0-36-16.1-36-36v-696c0-19.9 16.1-36 36-36h698c19.9 0 36 16.1 36 36V733c0 19.9-16.1 36-36 36z m-36-696H199V697h626v-624z"  horiz-adv-x="1024" />

    
    <glyph glyph-name="guanbi1" unicode="&#58987;" d="M803.9 138.5c-1.8 4.9-4.7 9.2-8.3 12.8L562.9 384l232.7 232.7c3.6 3.6 6.4 8 8.3 12.8 1.5 3.9 2.3 8.2 2.3 12.6 0 19.9-16.1 36-36 36-4.4 0-8.7-0.8-12.6-2.3-4.9-1.8-9.2-4.7-12.8-8.3L512 434.9 279.3 667.6c-3.6 3.6-8 6.4-12.8 8.3-3.9 1.5-8.2 2.3-12.6 2.3-19.9 0-36-16.1-36-36 0-4.4 0.8-8.7 2.3-12.6 1.8-4.9 4.7-9.2 8.3-12.8L461.1 384 228.4 151.3c-3.6-3.6-6.4-8-8.3-12.8-1.5-3.9-2.3-8.2-2.3-12.6 0-19.9 16.1-36 36-36 4.4 0 8.7 0.8 12.6 2.3 4.9 1.8 9.2 4.7 12.8 8.3L512 333.1l232.7-232.7c3.6-3.6 8-6.4 12.8-8.3 3.9-1.5 8.2-2.3 12.6-2.3 19.9 0 36 16.1 36 36 0.1 4.5-0.8 8.7-2.2 12.7z"  horiz-adv-x="1024" />

    
    <glyph glyph-name="icon_yonghu" unicode="&#58988;" d="M753.7 306.4c-20.6 8.2-45.5 15.6-71.2 21.9-24 5.9-38.5 10.9-60.5 14.8v39c21.8 10.7 31.4 25.4 47.7 43C702.1 460 722 506.7 722 557.8v70.5C722 736 634 824 526.4 824h-28.7C390 824 302 736 302 628.4v-70.5c0-76.9 35-143.9 100-175.8v-39c-22.1-3.9-36.7-8.9-60.7-14.8-25.6-6.3-50.5-13.7-70.9-21.9C143.5 255.6 116.9 189 116.9 142.1v-51.3c0-39.8 32.2-72 72-72h646.3c39.8 0 72 32.2 72 72v51.3c-0.1 46.9-26.7 113.5-153.5 164.3z m81.4-215.5H188.9v51.3c0 7 1.5 13.8 4.4 20.6 4.3 9.8 11.6 19.5 22.2 29.2 18.6 17.2 56.9 33.7 91.7 47.6 33.8 13.5 60.4 23.5 94.9 30.3 8.7 0 16.9 1.5 24.6 4.3 27.6 10.1 47.4 36.6 47.4 67.7v40.3c0 28-16 52.3-39.4 64.2-0.6 0.3-1.2 0.6-1.9 0.9-11.1 5.6-21.5 12.9-30.8 21.8-0.5 0.5-1.1 1-1.6 1.6-23.5 23.5-26.4 54.5-26.4 87.3v70.5c0 32.8 12.9 63.8 36.4 87.3s54.5 36.4 87.3 36.4h28.7c32.8 0 63.8-12.9 87.3-36.4s36.4-54.5 36.4-87.3V558c0-32.8-2.9-63.8-26.4-87.3l-1.6-1.6c-9.2-8.9-19.6-16.2-30.8-21.8-0.6-0.3-1.2-0.6-1.9-0.9-23.4-12-39.4-36.3-39.4-64.3v-39c0-33.2 22.5-61.2 53.1-69.5l-0.1-0.1 2.8-0.5c1.7-0.4 3.4-0.7 5.1-1l17.6-3.4c32.6-6.7 56.7-16.3 88.4-29 34.8-13.9 73-30.4 91.7-47.6 10.6-9.8 17.9-19.4 22.2-29.2 2.9-6.8 4.4-13.6 4.4-20.6v-51.3z"  horiz-adv-x="1024" />

    
    <glyph glyph-name="kefu" unicode="&#58989;" d="M885 463h-84v44c0 77.2-30.1 149.8-84.6 204.4C661.8 765.9 589.2 796 512 796s-149.8-30.1-204.4-84.6S223 584.2 223 507v-44h-84c-39.7 0-72-32.3-72-72v-186c0-39.7 32.3-72 72-72h110.9c14.1-30.2 33.5-58.1 57.8-82.4 25.8-25.8 55.7-46.2 88.2-60.4 10.1-30.9 39.2-53.2 73.5-53.2h85.3c34.3 0 63.3 22.3 73.5 53.2 2.5 7.6 3.9 15.7 3.9 24.1v5.3c0 17-5.5 32.7-14.8 45.5-14.1 19.3-36.8 31.9-62.6 31.9h-85.3c-25.7 0-48.5-12.6-62.6-31.9-17.5 9.7-33.7 21.9-48.2 36.4-9.8 9.8-18.5 20.3-26.1 31.4-15 21.9-25.7 46.3-31.7 72-3.8 16.2-5.8 32.9-5.8 50V507c0 58 22.6 112.5 63.6 153.4 41 41 95.5 63.6 153.4 63.6s112.5-22.6 153.4-63.6c41-41 63.6-95.5 63.6-153.4v-302c0-2.7 0.2-5.4 0.5-8 3-27.5 21.6-50.4 46.7-59.6 7.7-2.8 16.1-4.4 24.9-4.4h84c39.7 0 72 32.3 72 72V391c-0.1 39.7-32.4 72-72.1 72zM139 205V391h84v-136c0-16.9 1.4-33.6 4.3-50H139z m746 0h-84V391h84v-186z"  horiz-adv-x="1024" />

    
    <glyph glyph-name="icon_ditu" unicode="&#58990;" d="M512 808.96c-163.84 0-296.96-133.12-296.96-296.96 0-225.28 296.96-552.96 296.96-552.96s296.96 332.8 296.96 552.96c0 163.84-133.12 296.96-296.96 296.96z m0-404.48c-61.44 0-107.52 46.08-107.52 107.52s46.08 107.52 107.52 107.52 107.52-46.08 107.52-107.52-46.08-107.52-107.52-107.52z"  horiz-adv-x="1024" />

    
    <glyph glyph-name="icon_fanhui" unicode="&#58991;" d="M512 896C229.2 896 0 666.8 0 384s229.2-512 512-512 512 229.2 512 512S794.8 896 512 896z m90.8-692.3c13.3-13.3 13.3-35 0-48.3-6.7-6.7-15.4-10-24.2-10-8.7 0-17.5 3.3-24.2 10L350.2 359.8c-13.3 13.3-13.3 35 0 48.3l205.6 205.7c13.3 13.3 35 13.3 48.3 0 13.3-13.3 13.3-35 0-48.3L422.6 383.9l180.2-180.2z"  horiz-adv-x="1024" />

    
    <glyph glyph-name="icon_zhifubao" unicode="&#58992;" d="M1024 194.56V701.44C1024 808.96 936.96 896 829.44 896H194.56C87.04 896 0 808.96 0 701.44v-629.76C0-40.96 87.04-128 194.56-128h629.76c97.28 0 179.2 71.68 194.56 163.84-51.2 20.48-276.48 122.88-394.24 174.08-92.16-107.52-184.32-174.08-327.68-174.08-143.36 0-235.52 87.04-225.28 194.56 5.12 71.68 56.32 184.32 266.24 163.84 107.52-10.24 158.72-30.72 250.88-61.44 25.6 40.96 40.96 87.04 56.32 138.24H245.76v40.96h194.56V583.68H204.8v46.08h240.64v102.4s0 15.36 20.48 15.36H563.2v-117.76h256V588.8h-256v-71.68h209.92c-20.48-76.8-46.08-148.48-87.04-215.04 61.44-20.48 337.92-107.52 337.92-107.52zM117.76 240.64c-10.24-40.96 15.36-133.12 163.84-133.12 92.16 0 179.2 56.32 250.88 148.48-102.4 51.2-189.44 76.8-281.6 76.8-81.92-5.12-122.88-56.32-133.12-92.16z"  horiz-adv-x="1024" />

    
    <glyph glyph-name="icon_weixinzhifu" unicode="&#58993;" d="M793.6 896h-563.2C102.4 896 0 793.6 0 665.6v-563.2C0-25.6 102.4-128 230.4-128h563.2c128 0 230.4 102.4 230.4 230.4v563.2C1024 793.6 921.6 896 793.6 896zM512 76.8c-40.96 0-76.8 5.12-112.64 15.36l-122.88-61.44 30.72 102.4C215.04 189.44 153.6 281.6 153.6 384c0 168.96 158.72 307.2 358.4 307.2 122.88 0 230.4-51.2 296.96-133.12L430.08 384 312.32 476.16 399.36 230.4l435.2 296.96c25.6-40.96 40.96-92.16 40.96-138.24 0-174.08-163.84-312.32-363.52-312.32z"  horiz-adv-x="1024" />

    
    <glyph glyph-name="icon_jian" unicode="&#58994;" d="M213.333333 426.666667h597.333334v-85.333334H213.333333z"  horiz-adv-x="1024" />

    
    <glyph glyph-name="icon_yuanxin_jia" unicode="&#58995;" d="M512 812C275.6 812 84 620.4 84 384s191.6-428 428-428 428 191.6 428 428S748.4 812 512 812z m251.7-679.7c-32.7-32.7-70.8-58.4-113.2-76.3-43.8-18.6-90.4-28-138.5-28s-94.7 9.4-138.5 27.9c-42.4 17.9-80.5 43.6-113.2 76.3S201.9 203 184 245.4c-18.6 43.9-28 90.5-28 138.6s9.4 94.7 27.9 138.5c17.9 42.4 43.6 80.5 76.3 113.2 32.7 32.7 70.8 58.4 113.2 76.3 43.9 18.6 90.5 28 138.6 28s94.7-9.4 138.5-27.9c42.4-17.9 80.5-43.6 113.2-76.3 32.7-32.7 58.4-70.8 76.3-113.2 18.6-43.9 28-90.5 28-138.6s-9.4-94.7-27.9-138.5c-18-42.4-43.7-80.5-76.4-113.2zM690 420H548V562c0 19.9-16.1 36-36 36s-36-16.1-36-36v-142H334c-19.9 0-36-16.1-36-36s16.1-36 36-36h142v-142c0-19.9 16.1-36 36-36s36 16.1 36 36V348h142c19.9 0 36 16.1 36 36s-16.1 36-36 36z"  horiz-adv-x="1024" />

    
    <glyph glyph-name="shouji1" unicode="&#59039;" d="M750.674747 741.107071H272.032323v56.888889c0 6.723232 5.430303 12.153535 12.153536 12.153535h454.335353c6.723232 0 12.153535-5.430303 12.153535-12.153535v-56.888889z m0-580.266667H272.032323V706.973737h478.642424v-546.133333z m0-192.775758c0-6.723232-5.430303-12.153535-12.153535-12.153535H284.185859c-6.723232 0-12.153535 5.430303-12.153536 12.153535V126.707071h478.642424v-158.642425zM738.521212 844.282828H284.185859C258.585859 844.282828 237.89899 823.59596 237.89899 797.99596v-829.931314c0-25.6 20.686869-46.286869 46.286869-46.286868h454.335353c25.6 0 46.286869 20.686869 46.286869 46.286868V797.99596C784.937374 823.59596 764.121212 844.282828 738.521212 844.282828zM460.153535 58.440404h102.529293v-34.133333h-102.529293v34.133333z"  horiz-adv-x="1024" />

    
    <glyph glyph-name="erweima" unicode="&#58998;" d="M0 431h465V896H0v-465zM93 803h279v-279H93V803zM186 710h93v-93h-93zM186 152h93v-93h-93zM745 710h93v-93h-93zM559 896v-465h465V896H559z m372-372H652V803h279v-279zM0-128h465V337H0v-465z m93 372h279v-279H93V244zM745-35h93v-93h-93zM931-35h93v-93h-93zM931 244v-92h-93V337H559v-465h93V152h93v-93h279V337h-93z"  horiz-adv-x="1024" />

    
    <glyph glyph-name="daiquanquandetanhao" unicode="&#58999;" d="M509.1 668.7m-35.2 0a35.2 35.2 0 1 1 70.4 0 35.2 35.2 0 1 1-70.4 0ZM627.4 194.9h-83.2V536.8c0 19.4-15.7 35.2-35.2 35.2H415.2c-19.4 0-35.2-15.7-35.2-35.2s15.7-35.2 35.2-35.2h58.6v-306.7h-83.2c-19.4 0-35.2-15.7-35.2-35.2s15.7-35.2 35.2-35.2h236.7c19.4 0 35.2 15.7 35.2 35.2s-15.6 35.2-35.1 35.2zM512 884C235.8 884 12 660.2 12 384s223.8-500 500-500 500 223.8 500 500S788.2 884 512 884z m303.8-803.8c-39.5-39.5-85.4-70.5-136.6-92.1-52.9-22.5-109.2-33.8-167.2-33.8S397.7-34.4 344.8-12c-51.2 21.7-97.1 52.6-136.6 92.1-39.5 39.5-70.5 85.4-92.1 136.6C93.6 269.7 82.3 326 82.3 384S93.6 498.3 116 551.2c21.7 51.2 52.6 97.1 92.1 136.6 39.5 39.5 85.4 70.5 136.6 92.1C397.7 802.4 454 813.7 512 813.7S626.3 802.4 679.2 780c51.2-21.7 97.1-52.6 136.6-92.1 39.5-39.5 70.5-85.4 92.1-136.6 22.5-53 33.8-109.3 33.8-167.3S930.4 269.7 908 216.8c-21.7-51.2-52.6-97.2-92.2-136.6z"  horiz-adv-x="1024" />

    
    <glyph glyph-name="icon_mail" unicode="&#59000;" d="M889 769H136c-39.8 0-72-32.2-72-72v-625.8c0-39.8 32.2-72 72-72h753c39.8 0 72 32.2 72 72V697c0 39.7-32.3 72-72 72z m-77.2-72L543.7 472.9l-1.6-1.3-1.4-1.5c-6.8-7.2-16-11.1-25.9-11.2h-0.2c-9.8 0-19 3.9-25.8 10.9l-1.4 1.4L213.7 697h598.1zM889 71.2H136V667.7l302.8-249.5c20.4-20.2 47.2-31.3 76-31.3h0.5c28.9 0.1 55.9 11.4 76.2 31.9l297.7 248.8v-596.4h-0.2z"  horiz-adv-x="1024" />

    
    <glyph glyph-name="icon_map" unicode="&#59001;" d="M768 552.96c0 143.36-112.64 256-256 256s-256-112.64-256-256c0-194.56 256-471.04 256-471.04s256 281.6 256 471.04z m-343.04 0c0 46.08 40.96 87.04 87.04 87.04s87.04-40.96 87.04-87.04c0-46.08-35.84-87.04-87.04-87.04-46.08 5.12-87.04 40.96-87.04 87.04zM215.04 40.96h599.04v-87.04H215.04z"  horiz-adv-x="1024" />

    
    <glyph glyph-name="hudong" unicode="&#58996;" d="M392.533333 460.8V618.666667c0 59.733333 46.933333 106.666667 106.666667 106.666666s106.666667-46.933333 106.666667-106.666666v-157.866667c51.2 34.133333 85.333333 93.866667 85.333333 157.866667 0 106.666667-85.333333 192-192 192S307.2 725.333333 307.2 618.666667c0-68.266667 34.133333-123.733333 85.333333-157.866667zM814.933333 260.266667l-192 98.133333c-8.533333 4.266667-12.8 4.266667-21.333333 4.266667h-34.133333v256c0 34.133333-29.866667 64-64 64s-64-29.866667-64-64v-456.533334l-145.066667 29.866667h-8.533333c-12.8 0-25.6-4.266667-34.133334-12.8l-38.4-34.133333 209.066667-209.066667c12.8-12.8 29.866667-17.066667 46.933333-17.066667h290.133334c34.133333 0 55.466667 21.333333 59.733333 55.466667l34.133333 226.133333v8.533334c0 21.333333-17.066667 42.666667-38.4 51.2z"  horiz-adv-x="1024" />

    
    <glyph glyph-name="toupiao" unicode="&#58997;" d="M810.666667 768H213.333333c-46.933333 0-85.333333-38.4-85.333333-85.333333v-597.333334c0-46.933333 38.4-85.333333 85.333333-85.333333h597.333334c46.933333 0 85.333333 38.4 85.333333 85.333333V682.666667c0 46.933333-38.4 85.333333-85.333333 85.333333zM384 170.666667H298.666667v298.666666h85.333333v-298.666666z m170.666667 0h-85.333334V597.333333h85.333334v-426.666666z m170.666666 0h-85.333333v170.666666h85.333333v-170.666666z"  horiz-adv-x="1024" />

    
    <glyph glyph-name="icon_dapingmu" unicode="&#59002;" d="M896 768H128c-46.933333 0-85.333333-38.4-85.333333-85.333333v-512c0-46.933333 38.4-85.333333 85.333333-85.333334h170.666667v85.333334H128V682.666667h768v-512h-170.666667v-85.333334h170.666667c46.933333 0 85.333333 38.4 85.333333 85.333334V682.666667c0 46.933333-38.4 85.333333-85.333333 85.333333zM256-42.666667h512l-256 256z"  horiz-adv-x="1024" />

    
    <glyph glyph-name="huaban" unicode="&#58883;" d="M32.056227 42.203618h632.511835A296.72186 296.72186 0 0 1 804.567649-22.160207H32.056227a32.214987 32.214987 0 0 0 0 64.416744z m242.346667 469.492093A19.315762 19.315762 0 0 0 293.705426 492.353488v-379.872248a19.315762 19.315762 0 0 0-19.276072-19.328992h-127.007752a19.315762 19.315762 0 0 0-19.276072 19.328992V492.353488a19.315762 19.315762 0 0 0 19.276072 19.342223zM518.495917 896a19.315762 19.315762 0 0 0 19.276073-19.342222v-764.176538a19.315762 19.315762 0 0 0-19.276073-19.328992H391.607235a19.315762 19.315762 0 0 0-19.262842 19.328992V876.631318A19.262842 19.262842 0 0 0 391.607235 896z m97.901809-415.646098V660.50646a19.315762 19.315762 0 0 0 19.276072 19.342222h126.888683A19.302532 19.302532 0 0 0 781.772403 660.50646v-70.436382c-66.36155-16.682997-124.242687-56.08186-165.374677-109.808786z m253.883204-357.685582c-89.461085 0-161.987804 72.764858-161.987803 162.530233s72.513488 162.530233 161.987803 162.530233 161.987804-72.764858 161.987804-162.530233-72.513488-162.530233-161.987804-162.530233z m388.643721-151.615503L1103.379845 103.736227c-16.061189 14.552972-33.260155 21.167959-47.164858 20.54615a246.514109 246.514109 0 0 1 58.846925 160.294367c0 136.467183-110.179225 247.016848-246.170129 247.016848S622.748114 421.043928 622.748114 284.563514s110.192455-247.003618 246.170129-247.003617a244.820672 244.820672 0 0 1 159.738708 59.045374c-0.687959-13.891473 6.006408-31.130129 20.48-47.323617l132.299742-156.113695c22.623256-25.269251 59.534884-27.359587 82.184599-4.736331s20.54615 59.852403-4.630491 82.555039z"  horiz-adv-x="1279" />

    
    <glyph glyph-name="huaban1" unicode="&#58884;" d="M640.125867-67.413333a42.666667 42.666667 0 0 0-37.973334 23.466666l-148.906666 296.106667-92.586667-229.12a42.666667 42.666667 0 0 0-70.826667-12.8l-151.466666 164.266667-58.026667-105.813334a42.666667 42.666667 0 1 0-74.666667 42.666667l85.333334 157.866667a42.666667 42.666667 0 0 0 68.693333 8.106666l145.493333-158.293333 104.96 252.16a42.666667 42.666667 0 0 0 77.653334 2.986667l148.48-294.826667L810.792533 515.84a42.666667 42.666667 0 0 0 75.52 7.68l132.693334-203.093333a42.666667 42.666667 0 1 0-71.253334-46.506667l-87.466666 133.973333L682.792533-40.106667a42.666667 42.666667 0 0 0-37.973333-26.88zM871.3792 789.333333m-85.333333 0a85.333333 85.333333 0 1 1 170.666666 0 85.333333 85.333333 0 1 1-170.666666 0Z"  horiz-adv-x="1027" />

    
    <glyph glyph-name="bianji1" unicode="&#58888;" d="M937.859317-128h-884.574249a42.122583 42.122583 0 0 0 0 84.245167h884.574249a42.122583 42.122583 0 0 0 0-84.245167zM651.425751 537.536816a42.122583 42.122583 0 0 0-29.907034 12.215549l-131.843686 131.843686a42.122583 42.122583 0 0 0 59.392842 59.392842L680.490333 609.566434a42.122583 42.122583 0 0 0-29.907034-72.029618zM6.529 51.442205v220.301111L629.943233 896 848.980666 675.698889 227.251337 53.548334z m84.245167 185.760592V137.793501h101.0942L730.194981 675.698889 629.943233 776.371863l-84.245166-84.245166z"  horiz-adv-x="1024" />

    
    <glyph glyph-name="diaocha" unicode="&#58889;" d="M750.002609 526.572308H241.153378a39.384615 39.384615 0 0 0 0 78.76923h508.849231a39.384615 39.384615 0 0 0 0-78.76923zM750.002609 308.381538H241.153378a39.384615 39.384615 0 1 0 0 78.769231h508.849231a39.384615 39.384615 0 0 0 0-78.769231zM750.002609 90.190769H241.153378a39.384615 39.384615 0 0 0 0 78.769231h508.849231a39.384615 39.384615 0 0 0 0-78.769231zM902.421071-128H89.522609a68.529231 68.529231 0 0 0-19.298461 3.150769l-7.483077 2.756923a56.32 56.32 0 0 0-21.661539 15.36l-3.150769 3.544616a39.384615 39.384615 0 0 0-4.726154 6.695384l-3.938461 7.876923H27.688763v2.363077a39.384615 39.384615 0 0 0-3.544615 10.633846v2.363077a46.867692 46.867692 0 0 0-4.332308 10.633847 39.384615 39.384615 0 0 0 0 8.664615V747.913846a72.073846 72.073846 0 0 0 70.104615 75.224616h810.929231a72.073846 72.073846 0 0 0 70.498462-75.224616V-57.107692a52.381538 52.381538 0 0 0 0-11.027693A42.535385 42.535385 0 0 0 965.042609-88.615385a48.049231 48.049231 0 0 0-8.270769-12.996923 43.323077 43.323077 0 0 0-9.058462-9.846154 123.273846 123.273846 0 0 0-12.603076-8.270769 45.292308 45.292308 0 0 0-11.027693-4.726154 71.286154 71.286154 0 0 0-21.661538-3.544615z m23.236923 51.593846zM23.356455-73.255385zM59.196455-57.107692z m0 0z m39.384616 7.876923h793.6V744.369231H98.581071zM277.387225 708.135385a39.384615 39.384615 0 0 0-39.384616 39.384615V856.615385a39.384615 39.384615 0 0 0 78.769231 0v-109.095385a39.384615 39.384615 0 0 0-39.384615-39.384615zM713.768763 708.135385a39.384615 39.384615 0 0 0-39.384615 39.384615V856.615385a39.384615 39.384615 0 0 0 78.76923 0v-109.095385a39.384615 39.384615 0 0 0-39.384615-39.384615z"  horiz-adv-x="1024" />

    
    <glyph glyph-name="dian1" unicode="&#58893;" d="M243.2 384a85.333333 85.333333 0 0 0-85.333333-85.333333 85.333333 85.333333 0 0 0 0 170.666666 85.333333 85.333333 0 0 0 85.333333-85.333333z m268.8 85.333333a85.333333 85.333333 0 1 1 85.333333-85.333333 85.333333 85.333333 0 0 1-85.333333 85.333333z m346.453333 0a85.333333 85.333333 0 1 1 85.333334-85.333333 85.333333 85.333333 0 0 1-85.333334 85.333333z"  horiz-adv-x="1024" />

    
    <glyph glyph-name="icon_shuju_def" unicode="&#58881;" d="M298.666667 256H170.666667c9.130667 0 0-10.24 0-42.666667v-128c0-32.426667 9.130667-42.666667 0-42.666666h128c-9.130667 0 0 10.24 0 42.666666v128c0 32.426667-9.130667 42.666667 0 42.666667z m-42.666667-170.666667H213.333333v128h42.666667v-128z m213.333333 426.666667H341.333333c9.130667 0 0-9.301333 0 0v-469.333333c0 9.301333 9.130667 0 0 0h128c-9.130667 0 0 9.301333 0 0V512c0-9.301333-9.088 0 0 0z m-42.666666-426.666667H384v384h42.666667v-384z m256 298.666667h-128c14.933333 0 9.770667-2.261333 0 0 2.133333-10.410667 0-15.872 0-42.666667v-256c0-32.981333 9.088-42.666667 0-42.666666h128c-9.088 0 0 9.685333 0 42.666666v256c0 32.981333-9.088 42.666667 0 42.666667z m-42.666667-298.666667h-42.666667v256h42.666667v-256z m213.333333 640h-128c9.088 0 0-9.557333 0-42.666666v-597.333334c0-33.109333 9.088-42.666667 0-42.666666h128c-9.088 0 0 9.557333 0 42.666666V682.666667c0 33.109333-9.088 42.666667 0 42.666666z m-42.666666-640h-42.666667V682.666667h42.666667v-597.333334z"  horiz-adv-x="1024" />

    
    <glyph glyph-name="share" unicode="&#58882;" d="M713.088 153.856l-354.88 207.36c2.496 11.52 4.48 23.04 4.48 35.008 0 11.968-1.984 23.488-4.48 35.008l350.912 205.44c26.88-25.024 62.208-40.512 101.568-40.512A149.44 149.44 0 0 1 960 746.048 149.44 149.44 0 0 1 810.688 896a149.44 149.44 0 0 1-149.376-149.952c0-11.968 1.984-23.488 4.48-34.944L314.88 505.6a148.352 148.352 0 0 1-101.568 40.512A149.44 149.44 0 0 1 64 396.16a149.44 149.44 0 0 1 149.312-149.952c39.36 0 74.688 15.488 101.568 40.512l354.432-207.936a141.504 141.504 0 0 1-3.968-32.448 145.792 145.792 0 0 1 145.28-145.92 145.792 145.792 0 0 1 145.408 145.92 145.792 145.792 0 0 1-145.344 145.92 144.64 144.64 0 0 1-97.6-38.464z"  horiz-adv-x="1024" />

    
    <glyph glyph-name="cloudupload" unicode="&#58892;" d="M512.01216 768C388.30016 768 281.61216 697.6 230.41216 592A263.552 263.552 0 0 1 0.01216 328C0.01216 182.784 115.21216 64 256.01216 64h554.688C930.12416 64 1024.01216 160.832 1024.01216 284.032c0 114.368-89.6 211.2-196.288 219.968C797.90016 653.632 669.90016 768 512.01216 768z m102.4-576H409.61216V362.688H256.01216L512.01216 576l256-213.312H614.41216V192z"  horiz-adv-x="1024" />

    
    <glyph glyph-name="zhongshi" unicode="&#59035;" d="M512.003-64C286.499-64 101.75 103.168 70.454 320h64c30.605-181.446 187.392-320 377.549-320 212.077 0 384 171.923 384 384s-171.923 384-384 384c-122.477 0-230.342-58.157-300.371-147.629L320.003 512H63.997V768l102.374-102.374C248.182 766.611 371.843 832 512.003 832c247.424 0 448-200.576 448-448s-200.576-448-448-448z"  horiz-adv-x="1024" />

    
    <glyph glyph-name="zuanshi" unicode="&#58894;" d="M629.549589 883.936438l338.62137-418.998356h1.122192L976.026301 883.936438h-346.476712zM628.287123 885.339178L287.842192 463.395068H969.293151L628.287123 885.339178zM1257.696438 509.545205L969.293151 463.395068 628.287123-121.407123 287.842192 463.395068 0.420822 509.545205 282.090959 882.393425l5.751233-418.998357H969.293151L973.220822 885.339178l284.475616-375.793973zM626.74411-124.352877v4.629041L287.842192 463.395068 0 509.685479l626.323288-634.038356z m342.549041 587.747945L631.232877-117.339178v-6.031781l626.463561 633.056438zM289.104658 464.938082L627.164932 883.936438h-345.073973l5.751233-418.998356h1.262466z"  horiz-adv-x="1262" />

    
    <glyph glyph-name="putonghuiyuanzuanshi" unicode="&#58905;" d="M634.695495 892.771171l341.333334-422.515315h1.845045l6.457658 422.515315zM633.772973 894.616216l-343.178378-426.205405H977.873874zM977.873874 468.410811l-344.100901-589.491892-343.178378 589.491892L0 515.459459 284.136937 891.848649l6.457658-423.437838H977.873874l3.69009 426.205405 286.904504-379.156757zM631.927928-123.848649l0.922522 4.612613-342.255855 587.646847L0 515.459459l631.927928-639.308108z m345.945946 592.25946l-341.333333-585.801802 0.922522-6.457658 631.927928 638.385586-291.517117-46.126126zM291.517117 470.255856l341.333333 422.515315H284.136937l6.457658-422.515315z"  horiz-adv-x="1273" />

    
    <glyph glyph-name="Play" unicode="&#58908;" d="M512 896C228.977778 896 0 667.022222 0 384s228.977778-512 512-512 512 228.977778 512 512S795.022222 896 512 896z m0-938.666667C277.333333-42.666667 85.333333 149.333333 85.333333 384S277.333333 810.666667 512 810.666667s426.666667-192 426.666667-426.666667-192-426.666667-426.666667-426.666667z m-93.866667 206.222223c-5.688889 0-11.377778 1.422222-17.066666 4.266666-11.377778 5.688889-17.066667 17.066667-17.066667 28.444445V521.955556c0 11.377778 7.111111 22.755556 17.066667 28.444444 11.377778 5.688889 24.177778 5.688889 34.133333-1.422222l273.066667-163.555556c9.955556-5.688889 15.644444-17.066667 15.644444-27.022222 0-11.377778-5.688889-21.333333-15.644444-27.022222L436.622222 169.244444c-5.688889-4.266667-12.8-5.688889-18.488889-5.688888z"  horiz-adv-x="1024" />

    
    <glyph glyph-name="shape" unicode="&#58909;" d="M384 597.333333c-24.177778 0-42.666667-19.911111-42.666667-42.666666v-341.333334c0-24.177778 18.488889-42.666667 42.666667-42.666666s42.666667 19.911111 42.666667 42.666666V554.666667c0 22.755556-18.488889 42.666667-42.666667 42.666666z m598.755556-14.222222c-25.6 61.155556-62.577778 115.2-109.511112 162.133333-46.933333 46.933333-100.977778 83.911111-162.133333 109.511112C647.111111 881.777778 580.266667 896 512 896c-69.688889 0-136.533333-14.222222-199.111111-39.822222-61.155556-25.6-115.2-62.577778-162.133333-109.511111-46.933333-46.933333-83.911111-100.977778-109.511112-162.133334C14.222222 520.533333 0 453.688889 0 384s14.222222-136.533333 39.822222-199.111111c25.6-61.155556 62.577778-115.2 109.511111-162.133333s100.977778-83.911111 162.133334-109.511112c62.577778-27.022222 129.422222-39.822222 199.111111-39.822222s136.533333 14.222222 199.111111 39.822222c61.155556 25.6 115.2 62.577778 162.133333 109.511112 46.933333 46.933333 83.911111 100.977778 109.511111 162.133333 27.022222 62.577778 39.822222 129.422222 39.822223 199.111111 1.422222 69.688889-11.377778 136.533333-38.4 199.111111zM678.4-8.533333C625.777778-31.288889 570.311111-42.666667 512-42.666667s-113.777778 11.377778-166.4 34.133334c-51.2 21.333333-96.711111 52.622222-135.111111 91.022222-39.822222 39.822222-69.688889 85.333333-91.022222 135.111111C96.711111 270.222222 85.333333 325.688889 85.333333 384s11.377778 113.777778 34.133334 166.4c21.333333 51.2 52.622222 96.711111 91.022222 135.111111 39.822222 39.822222 85.333333 69.688889 135.111111 91.022222C398.222222 799.288889 455.111111 810.666667 512 810.666667s113.777778-11.377778 166.4-34.133334c51.2-21.333333 96.711111-52.622222 135.111111-91.022222 39.822222-39.822222 69.688889-85.333333 91.022222-135.111111C927.288889 497.777778 938.666667 440.888889 938.666667 384s-11.377778-113.777778-34.133334-166.4c-21.333333-51.2-52.622222-96.711111-91.022222-135.111111-38.4-39.822222-83.911111-69.688889-135.111111-91.022222zM640 597.333333c-24.177778 0-42.666667-19.911111-42.666667-42.666666v-341.333334c0-24.177778 18.488889-42.666667 42.666667-42.666666s42.666667 19.911111 42.666667 42.666666V554.666667c0 22.755556-18.488889 42.666667-42.666667 42.666666z"  horiz-adv-x="1024" />

    
    <glyph glyph-name="huaban2" unicode="&#58895;" d="M25.813333 89.6h506.453334a237.653333 237.653333 0 0 1 112.213333-51.626667H25.813333a25.6 25.6 0 0 0 0 51.626667z m194.133334 375.893333a15.36 15.36 0 0 0 15.36-15.36v-304.213333a15.36 15.36 0 0 0-15.36-15.36H118.4a15.36 15.36 0 0 0-15.36 15.36v304.213333a15.36 15.36 0 0 0 15.36 15.36z m195.413333 308.053334a15.36 15.36 0 0 0 15.36-15.36v-612.266667a15.36 15.36 0 0 0-15.36-15.36H313.813333a15.36 15.36 0 0 0-14.506666 15.36V757.76a15.36 15.36 0 0 0 15.36 15.36z m78.506667-332.8V584.96a15.36 15.36 0 0 0 15.36 15.36h101.546666a15.36 15.36 0 0 0 15.36-15.36v-56.32a241.493333 241.493333 0 0 1-132.266666-87.893333z m203.093333-286.293334a130.133333 130.133333 0 1 0 128 130.133334 128 128 0 0 0-128-130.133334z m311.04-121.6l-124.16 106.24a55.466667 55.466667 0 0 1-37.973333 16.64 196.693333 196.693333 0 1 1-22.186667-22.186666 55.893333 55.893333 0 0 1 16.213333-37.973334l105.813334-125.013333a42.666667 42.666667 0 1 1 62.293333 62.293333z"  horiz-adv-x="1024" />

    
    <glyph glyph-name="xianxiahuodong" unicode="&#59713;" d="M680.91904 241.52064c-69.46816 0-136.99072 53.00224-176.27136 138.3424l37.19168 17.12128c32.52224-70.61504 85.79072-114.50368 139.07968-114.50368 93.45024 0 165.96992 125.89056 165.96992 234.20928 0 104.01792-65.14688 171.2128-165.96992 171.2128-33.09568 0-64.1024-7.86432-89.64096-22.77376l-20.64384 35.38944c31.80544 18.55488 69.9392 28.34432 110.2848 28.34432 123.76064 0 206.92992-85.25824 206.92992-212.1728 0-129.88416-88.51456-275.16928-206.92992-275.16928zM385.98656 281.37472c-132.66944 0-231.77216 163.2256-231.77216 309.16608 0 142.17216 93.14304 237.69088 231.77216 237.69088 99.65568 0 179.54816-51.3024 213.72928-137.25696l-38.07232-15.13472c-27.72992 69.77536-93.40928 111.43168-175.65696 111.43168-115.9168 0-190.81216-77.23008-190.81216-196.73088 0-124.02688 83.3536-268.20608 190.81216-268.20608 48.0256 0 95.1296 29.53216 132.62848 83.18976l33.56672-23.47008c-45.38368-64.9216-104.40704-100.67968-166.1952-100.67968zM552.18176 382.0544l-33.56672 23.47008c36.41344 52.08064 58.18368 121.2416 58.18368 184.99584 0 31.27296-5.09952 59.98592-15.1552 85.2992l38.07232 15.11424c11.96032-30.14656 18.04288-63.93856 18.04288-100.41344 0-72.88832-23.90016-148.8896-65.57696-208.46592zM733.40928 235.23328a8.51968 8.51968 0 0 0-8.47872-8.51968h-68.87424a8.4992 8.4992 0 0 0 0 16.9984h68.87424c4.66944 0 8.47872-3.74784 8.47872-8.47872zM443.00288 274.88256c0-4.7104-5.30432-8.51968-11.79648-8.51968h-95.4368c-6.49216 0-11.776 3.80928-11.776 8.51968 0 4.68992 5.28384 8.4992 11.776 8.4992h95.4368c6.49216 0 11.79648-3.82976 11.79648-8.4992zM235.80672-35.81952a15.36 15.36 0 0 0-10.07616 26.97216l147.70176 128.34816a15.36 15.36 0 1 0 20.15232-23.20384l-147.70176-128.34816a15.42144 15.42144 0 0 0-10.07616-3.76832zM369.99168 271.52384h26.97216v-168.59136h-26.97216zM607.04768 26.86976a15.36 15.36 0 0 0-10.07616 26.97216l83.43552 72.47872a15.42144 15.42144 0 0 0 21.68832-1.51552 15.40096 15.40096 0 0 0-1.51552-21.68832l-83.43552-72.47872a15.50336 15.50336 0 0 0-10.09664-3.76832zM676.9664 231.15776h26.97216v-116.44928h-26.97216zM256.79872 523.32544a20.48 20.48 0 0 0-20.48 20.48c0 102.03136 67.25632 185.05728 149.93408 185.05728a20.48 20.48 0 0 0 0-40.96c-60.08832 0-108.97408-64.63488-108.97408-144.09728a20.48 20.48 0 0 0-20.48-20.48zM710.98368 339.00544a20.45952 20.45952 0 0 0-2.90816 40.73472c6.06208 0.88064 9.9328 6.18496 11.71456 9.25696 3.91168 6.81984 5.40672 15.99488 4.07552 25.16992a20.48 20.48 0 0 0 40.52992 5.89824c2.68288-18.35008-0.55296-36.61824-9.07264-51.46624-9.3184-16.22016-24.39168-26.91072-41.3696-29.3888a20.8896 20.8896 0 0 0-2.9696-0.2048z"  horiz-adv-x="1024" />

    
    <glyph glyph-name="zan" unicode="&#58910;" d="M863.573333 459.093333h-225.28C727.04 776.533333 580.266667 793.6 580.266667 793.6c-61.44 0-47.786667-47.786667-54.613334-58.026667 0-157.013333-167.253333-279.893333-167.253333-279.893333v-443.733333c0-44.373333 61.44-58.026667 81.92-58.026667h337.92c30.72 0 58.026667 81.92 58.026667 81.92C921.6 319.146667 921.6 404.48 921.6 404.48c0 58.026667-58.026667 54.613333-58.026667 54.613333zM266.24 455.68h-136.533333c-27.306667 0-27.306667-23.893333-27.306667-23.893333l27.306667-447.146667c0-27.306667 27.306667-27.306667 27.306666-27.306667H273.066667c23.893333 0 23.893333 20.48 23.893333 20.48V424.96c3.413333 34.133333-30.72 30.72-30.72 30.72z"  horiz-adv-x="1024" />

    
    <glyph glyph-name="douban" unicode="&#58911;" d="M221.866667 691.2h580.266666v-64.853333h-580.266666V691.2zM750.933333 302.08V558.08H273.066667v-256h477.866666z m-409.6 191.146667h341.333334v-126.293334H341.333333v126.293334zM648.533333 155.306667c20.48 30.72 40.96 68.266667 58.026667 112.64l-68.266667 23.893333c-17.066667-51.2-40.96-95.573333-64.853333-136.533333h-119.466667c-20.48 54.613333-44.373333 98.986667-68.266666 136.533333l-64.853334-23.893333c27.306667-40.96 47.786667-75.093333 64.853334-112.64H204.8v-64.853334h614.4v64.853334h-170.666667z"  horiz-adv-x="1024" />

    
    <glyph glyph-name="qq" unicode="&#58912;" d="M197.973333 325.973333c-30.72-54.613333-34.133333-112.64-27.306666-112.64 27.306667-17.066667 51.2 0 58.026666 27.306667 23.893333-30.72 44.373333-61.44 85.333334-85.333333-44.373333-13.653333-64.853333-30.72-58.026667-58.026667-6.826667-27.306667 47.786667-54.613333 112.64-54.613333 61.44 0 112.64 23.893333 112.64 58.026666 10.24-3.413333 20.48-3.413333 27.306667 0 3.413333-34.133333 51.2-58.026667 112.64-58.026666 64.853333 0 119.466667 27.306667 112.64 58.026666 6.826667 27.306667-13.653333 44.373333-58.026667 58.026667 40.96 23.893333 61.44 54.613333 85.333333 85.333333 6.826667-30.72 30.72-44.373333 58.026667-27.306666 6.826667 0 3.413333 58.026667-27.306667 112.64-13.653333 51.2-40.96 85.333333-58.026666 85.333333-6.826667 10.24-6.826667 13.653333 0 27.306667-6.826667 6.826667-10.24 23.893333-27.306667 27.306666 10.24 10.24 10.24 10.24 0 0 10.24 20.48 6.826667 27.306667 0 27.306667C706.56 626.346667 624.64 725.333333 477.866667 725.333333c-116.053333 0-197.973333-98.986667-197.973334-228.693333-6.826667 0-10.24-6.826667 0-27.306667-10.24 10.24-10.24 10.24 0 0-17.066667-3.413333-23.893333-20.48-27.306666-27.306666 6.826667-13.653333 6.826667-17.066667 0-27.306667-10.24 0-37.546667-37.546667-54.613334-88.746667z"  horiz-adv-x="1024" />

    
    <glyph glyph-name="sina" unicode="&#58913;" d="M699.733333 401.066667c-10.24 3.413333-17.066667 3.413333-10.24 17.066666 13.653333 30.72 13.653333 54.613333 0 75.093334-23.893333 34.133333-92.16 34.133333-167.253333 0 0 0-23.893333-10.24-17.066667 6.826666 10.24 37.546667 10.24 68.266667-6.826666 88.746667-44.373333 40.96-157.013333 0-249.173334-95.573333C177.493333 424.96 136.533333 349.866667 136.533333 285.013333c0-122.88 160.426667-197.973333 314.026667-197.973333 204.8 0 341.333333 119.466667 341.333333 211.626667 0 54.613333-47.786667 88.746667-92.16 102.4z m-249.173333-269.653334c-122.88-13.653333-232.106667 44.373333-238.933333 126.293334-6.826667 78.506667 85.333333 153.6 211.626666 167.253333 122.88 13.653333 232.106667-44.373333 238.933334-126.293333 6.826667-78.506667-85.333333-157.013333-211.626667-167.253334zM836.266667 626.346667c-47.786667 54.613333-122.88 75.093333-187.733334 61.44-17.066667-3.413333-23.893333-17.066667-20.48-34.133334 3.413333-17.066667 17.066667-23.893333 34.133334-20.48 47.786667 10.24 98.986667-3.413333 133.12-44.373333 34.133333-37.546667 44.373333-92.16 30.72-136.533333-6.826667-17.066667 0-34.133333 13.653333-37.546667s30.72 3.413333 37.546667 17.066667c20.48 64.853333 6.826667 139.946667-40.96 194.56M761.173333 558.08c-23.893333 27.306667-58.026667 37.546667-92.16 30.72-13.653333-3.413333-20.48-17.066667-20.48-30.72 3.413333-13.653333 17.066667-20.48 30.72-20.48 17.066667 3.413333 34.133333 0 44.373334-13.653333 10.24-13.653333 13.653333-30.72 10.24-44.373334-3.413333-13.653333 3.413333-27.306667 17.066666-30.72s27.306667 3.413333 30.72 17.066667c10.24 30.72 3.413333 64.853333-20.48 92.16M464.213333 363.52c-58.026667 13.653333-126.293333-13.653333-150.186666-64.853333-27.306667-51.2 0-112.64 58.026666-129.706667 61.44-20.48 133.12 10.24 160.426667 68.266667 23.893333 51.2-6.826667 109.226667-68.266667 126.293333z m-44.373333-136.533333c-13.653333-20.48-37.546667-27.306667-58.026667-17.066667s-23.893333 30.72-13.653333 47.786667c10.24 17.066667 37.546667 27.306667 54.613333 17.066666 20.48-6.826667 27.306667-27.306667 17.066667-47.786666z m37.546667 51.2c-3.413333-6.826667-13.653333-10.24-20.48-6.826667-6.826667 3.413333-10.24 10.24-6.826667 17.066667s13.653333 10.24 20.48 6.826666c10.24-3.413333 13.653333-10.24 6.826667-17.066666z"  horiz-adv-x="1024" />

    
    <glyph glyph-name="xing" unicode="&#58930;" d="M918.186667 489.813333c-3.413333 13.653333-17.066667 23.893333-30.72 27.306667l-235.52 34.133333L546.133333 773.12c-6.826667 10.24-20.48 20.48-34.133333 20.48s-27.306667-6.826667-34.133333-20.48l-105.813334-221.866667-235.52-34.133333c-17.066667 0-27.306667-10.24-30.72-27.306667-6.826667-13.653333-3.413333-27.306667 6.826667-37.546666l170.666667-170.666667-40.96-238.933333c-3.413333-13.653333 3.413333-30.72 13.653333-37.546667 10.24-10.24 27.306667-10.24 40.96-3.413333l211.626667 112.64 211.626666-112.64c6.826667-3.413333 10.24-3.413333 17.066667-3.413334s17.066667 3.413333 23.893333 6.826667c10.24 10.24 17.066667 23.893333 13.653334 37.546667l-40.96 238.933333 170.666666 170.666667c17.066667 10.24 20.48 23.893333 13.653334 37.546666z"  horiz-adv-x="1024" />

    
    <glyph glyph-name="weixin" unicode="&#58931;" d="M645.12 500.053333h23.893333C648.533333 609.28 532.48 691.2 402.773333 691.2 256 691.2 136.533333 588.8 136.533333 455.68c0-75.093333 40.96-136.533333 105.813334-184.32l-27.306667-81.92L307.2 237.226667c34.133333-6.826667 61.44-13.653333 92.16-13.653334h23.893333c-6.826667 17.066667-6.826667 37.546667-6.826666 58.026667 3.413333 119.466667 102.4 218.453333 228.693333 218.453333z m-143.36 75.093334c20.48 0 34.133333-13.653333 34.133333-34.133334s-13.653333-34.133333-34.133333-34.133333-40.96 13.653333-40.96 34.133333 20.48 34.133333 40.96 34.133334z m-184.32-71.68c-20.48 0-40.96 13.653333-40.96 34.133333s20.48 34.133333 40.96 34.133333 34.133333-13.653333 34.133333-34.133333c-3.413333-20.48-17.066667-34.133333-34.133333-34.133333zM887.466667 285.013333c0 109.226667-105.813333 197.973333-225.28 197.973334-126.293333 0-225.28-88.746667-225.28-197.973334 0-109.226667 98.986667-197.973333 225.28-197.973333 27.306667 0 54.613333 6.826667 78.506666 13.653333l71.68-40.96-20.48 68.266667c54.613333 40.96 95.573333 95.573333 95.573334 157.013333z m-300.373334 34.133334c-13.653333 0-27.306667 13.653333-27.306666 27.306666s13.653333 27.306667 27.306666 27.306667c20.48 0 34.133333-13.653333 34.133334-27.306667s-13.653333-27.306667-34.133334-27.306666z m146.773334 0c-13.653333 0-27.306667 13.653333-27.306667 27.306666s13.653333 27.306667 27.306667 27.306667c20.48 0 34.133333-13.653333 34.133333-27.306667s-13.653333-27.306667-34.133333-27.306666z"  horiz-adv-x="1024" />

    
    <glyph glyph-name="zhihu" unicode="&#58932;" d="M402.773333 349.866667h133.12c0 30.72-13.653333 51.2-13.653333 51.2h-116.053333c3.413333 54.613333 3.413333 126.293333 6.826666 153.6h109.226667s0 47.786667-13.653333 47.786666H317.44s10.24 61.44 27.306667 88.746667c0 0-58.026667 3.413333-75.093334-75.093333s-51.2-122.88-54.613333-133.12 17.066667-3.413333 23.893333 0 47.786667 20.48 58.026667 71.68h58.026667c0-34.133333 3.413333-139.946667 3.413333-157.013334H238.933333c-17.066667-13.653333-23.893333-47.786667-23.893333-47.786666h139.946667c-6.826667-37.546667-17.066667-88.746667-30.72-116.053334-23.893333-40.96-34.133333-81.92-116.053334-146.773333 0 0-13.653333-10.24 27.306667-6.826667 40.96 3.413333 81.92 13.653333 105.813333 68.266667 13.653333 27.306667 27.306667 64.853333 40.96 102.4l116.053334-133.12s13.653333 37.546667 3.413333 75.093333l-85.333333 95.573334-27.306667-20.48c6.826667 27.306667 13.653333 54.613333 13.653333 81.92 0-3.413333 0-3.413333 0 0zM563.2 612.693333v-464.213333h47.786667l20.48-54.613333 81.92 54.613333H819.2V612.693333h-256z m204.8-416.426666h-54.613333l-68.266667-44.373334-17.066667 44.373334H614.4V561.493333h157.013333l-3.413333-365.226666z"  horiz-adv-x="1024" />

    
    <glyph glyph-name="chanpin-didian" unicode="&#58933;" d="M507.733333 896C273.066667 896 85.333333 708.266667 85.333333 473.6c0-332.8 384-580.266667 401.066667-588.8l21.333333-12.8 17.066667 12.8c17.066667 8.533333 401.066667 256 401.066667 588.8 0 234.666667-187.733333 422.4-418.133334 422.4z m0-580.266667c-76.8 0-140.8 64-140.8 140.8S430.933333 597.333333 507.733333 597.333333s140.8-64 140.8-140.8-64-140.8-140.8-140.8z"  horiz-adv-x="1024" />

    
    <glyph glyph-name="jia" unicode="&#58934;" d="M435.2 460.8H42.666667v-157.866667h392.533333V-85.333333h157.866667v392.533333H981.333333v157.866667h-392.533333V853.333333h-157.866667v-392.533333z"  horiz-adv-x="1024" />

    
    <glyph glyph-name="duihao" unicode="&#58935;" d="M149.333333 401.066667L42.666667 290.133333l290.133333-285.866666L981.333333 618.666667 874.666667 725.333333 332.8 221.866667z"  horiz-adv-x="1024" />

    
    </font>
</defs>
</svg>
